<svg width="30" height="30" viewBox="0 0 30 30" fill="none" xmlns="http://www.w3.org/2000/svg">
<path fill-rule="evenodd" clip-rule="evenodd" d="M4 0C1.79083 0 0 1.79102 0 4V26C0 28.209 1.79083 30 4 30H26C28.2092 30 30 28.209 30 26V4C30 1.79102 28.2092 0 26 0H4ZM12.4158 9.16943C11.9273 9.04248 11.3944 9 10.8171 9H5V20.7031H10.9504C11.4832 20.7031 12.0161 20.6182 12.549 20.4912C13.0818 20.3638 13.5703 20.1519 13.97 19.8975C14.3696 19.6431 14.7249 19.2617 14.9469 18.8374C15.1689 18.4136 15.3021 17.9048 15.3021 17.311C15.3021 16.5903 15.0801 15.9541 14.7249 15.4453C14.3696 14.9365 13.7924 14.5547 13.0374 14.3428C13.5703 14.0884 14.0143 13.749 14.2808 13.3677C14.5916 12.9858 14.7249 12.4771 14.7249 11.8833C14.7249 11.3745 14.636 10.9082 14.4584 10.5264C14.2808 10.145 14.0143 9.84814 13.6591 9.63623C13.3039 9.42383 12.9042 9.25439 12.4158 9.16943ZM11.6609 13.4097C11.35 13.6221 10.9504 13.749 10.4619 13.749H7.70874V10.9932H10.2843C10.5507 10.9932 10.7728 10.9932 10.9948 11.0352C11.2168 11.0776 11.3944 11.1626 11.572 11.2476C11.7497 11.3745 11.8829 11.502 11.9717 11.6714C12.0605 11.8408 12.1049 12.0952 12.1049 12.3496C12.1049 12.8164 11.9717 13.1978 11.6609 13.4097ZM11.35 18.668C11.128 18.7104 10.8616 18.7524 10.5951 18.7524H7.70874V15.4878H10.6395C11.2168 15.4878 11.7053 15.6147 12.0605 15.8691C12.4158 16.166 12.5934 16.5903 12.5934 17.1836C12.5934 17.3589 12.5624 17.5195 12.5188 17.665C12.4885 17.7661 12.4521 17.8599 12.4158 17.9468C12.3322 18.0801 12.2485 18.1797 12.1539 18.2671C12.0978 18.3188 12.0378 18.3662 11.9717 18.4136C11.8639 18.4907 11.7397 18.5522 11.6092 18.5981C11.5246 18.6279 11.4373 18.6514 11.35 18.668ZM20.764 19.2192C20.0535 19.2192 19.5207 19.0493 19.1654 18.7104C18.8102 18.3711 18.5438 17.7349 18.5438 17.0566H24.9826C25.027 16.3779 24.9826 15.7847 24.8937 15.1909C24.7161 14.5972 24.4497 14.0459 24.0945 13.5796C23.7392 13.0708 23.2952 12.7314 22.7179 12.4346C22.1406 12.1377 21.4745 12.0107 20.7196 12.0107C20.0092 12.0107 19.4319 12.1377 18.8546 12.3496C18.3217 12.562 17.8333 12.9009 17.4336 13.2827C17.0339 13.7065 16.7231 14.1733 16.5011 14.7246C16.2791 15.2754 16.1902 15.8691 16.1902 16.5054C16.1902 17.1836 16.2791 17.7773 16.5011 18.3286C16.6787 18.8799 16.9896 19.3462 17.3892 19.728C17.7889 20.1519 18.2329 20.4487 18.8102 20.6606C19.3875 20.8726 20.0092 21 20.7196 21C21.741 21 22.5847 20.7456 23.2952 20.3218C24.0057 19.855 24.5385 19.1343 24.8937 18.1167H22.7179C22.6291 18.3711 22.407 18.6255 22.0518 18.8799C21.6965 19.0918 21.2525 19.2192 20.764 19.2192ZM21.4636 13.9463C21.6588 14.0234 21.8278 14.1284 21.963 14.2578C22.2738 14.5547 22.4958 14.979 22.5847 15.6147H18.5881C18.5881 15.4453 18.6326 15.2754 18.6769 15.0635C18.7214 14.8516 18.8102 14.6396 18.9878 14.4697C19.1654 14.3003 19.3431 14.1309 19.6095 14.0034C19.8759 13.8765 20.1868 13.7915 20.5864 13.7915C20.9125 13.7915 21.2102 13.8457 21.4636 13.9463ZM23.0287 9.80566H18.0553V10.9507H23.0287V9.80566Z" fill="black"/>
</svg>
