<svg width="20" height="20" viewBox="0 0 20 20" fill="none" xmlns="http://www.w3.org/2000/svg">
<path d="M17.0703 0L2.92969 0C1.31439 0 0 1.31439 0 2.92969L0 17.0703C0 18.6856 1.31439 20 2.92969 20L8.82812 20L8.82812 12.9297L6.48437 12.9297L6.48437 9.41406L8.82812 9.41406L8.82812 7.03125C8.82812 5.09262 10.4051 3.51563 12.3437 3.51563L15.8984 3.51563L15.8984 7.03125L12.3437 7.03125L12.3437 9.41406L15.8984 9.41406L15.3125 12.9297L12.3437 12.9297L12.3437 20L17.0703 20C18.6856 20 20 18.6856 20 17.0703L20 2.92969C20 1.31439 18.6856 0 17.0703 0Z" fill="black"/>
</svg>
