<svg width="70" height="62" viewBox="0 0 70 62" fill="none" xmlns="http://www.w3.org/2000/svg">
<g filter="url(#filter0_d_37_78)">
<mask id="path-2-inside-1_37_78" fill="white">
<path d="M0 16H64V52C64 54.2091 62.2091 56 60 56H4C1.79086 56 0 54.2091 0 52V16Z"/>
</mask>
<path d="M0 16H64V52C64 54.2091 62.2091 56 60 56H4C1.79086 56 0 54.2091 0 52V16Z" fill="white"/>
<path d="M-3 15H67L61 17H3L-3 15ZM67 52C67 55.866 63.866 59 60 59H4C0.134007 59 -3 55.866 -3 52H3C3 52.5523 3.44772 53 4 53H60C60.5523 53 61 52.5523 61 52H67ZM4 59C0.134007 59 -3 55.866 -3 52V15L3 17V52C3 52.5523 3.44772 53 4 53V59ZM67 15V52C67 55.866 63.866 59 60 59V53C60.5523 53 61 52.5523 61 52V17L67 15Z" fill="black" mask="url(#path-2-inside-1_37_78)"/>
<mask id="path-4-inside-2_37_78" fill="white">
<path d="M0 4C0 1.79086 1.79086 0 4 0H60C62.2091 0 64 1.79086 64 4V16H0V4Z"/>
</mask>
<path d="M0 4C0 1.79086 1.79086 0 4 0H60C62.2091 0 64 1.79086 64 4V16H0V4Z" fill="#616161"/>
<path d="M-3 4C-3 0.134007 0.134007 -3 4 -3H60C63.866 -3 67 0.134007 67 4H61C61 3.44772 60.5523 3 60 3H4C3.44772 3 3 3.44772 3 4H-3ZM67 18H-3L3 14H61L67 18ZM-3 18V4C-3 0.134007 0.134007 -3 4 -3V3C3.44772 3 3 3.44772 3 4V14L-3 18ZM60 -3C63.866 -3 67 0.134007 67 4V18L61 14V4C61 3.44772 60.5523 3 60 3V-3Z" fill="black" mask="url(#path-4-inside-2_37_78)"/>
<circle cx="8.5" cy="8.5" r="2.5" fill="#D33232" stroke="black" stroke-width="2"/>
<circle cx="18.5" cy="8.5" r="2.5" fill="#E7D53A" stroke="black" stroke-width="2"/>
<circle cx="28.5" cy="8.5" r="2.5" fill="#269938" stroke="black" stroke-width="2"/>
<g clip-path="url(#clip0_37_78)">
<path d="M32.8334 21.4428V19.8144C32.8334 19.3645 32.46 19 31.9999 19C31.5398 19 31.1665 19.3645 31.1665 19.8144V21.4428C31.1665 21.8924 31.5398 22.2572 31.9999 22.2572C32.46 22.2572 32.8334 21.8924 32.8334 21.4428Z" fill="black" stroke="black" stroke-width="0.45"/>
<path d="M23.1579 25.8317C23.493 25.8303 23.7944 25.6332 23.9236 25.3314C24.0527 25.0293 23.9841 24.6812 23.7497 24.4475L22.5748 23.2913C22.2481 22.9721 21.7182 22.9721 21.3915 23.2913C21.0648 23.6106 21.0648 24.1283 21.3915 24.4475C22.6747 25.6932 22.7247 25.8317 23.1579 25.8317H23.1579Z" fill="black" stroke="black" stroke-width="0.45"/>
<path d="M41.4247 23.2913L40.2498 24.4475C39.9666 24.7706 39.9855 25.252 40.2936 25.5528C40.6013 25.8538 41.0941 25.8723 41.4247 25.5956L42.608 24.4475C42.9347 24.1283 42.9347 23.6106 42.608 23.2913C42.2812 22.9721 41.7514 22.9721 41.4247 23.2913L41.4247 23.2913Z" fill="black" stroke="black" stroke-width="0.45"/>
<path d="M46.1665 32.8423H44.4999C44.0398 32.8423 43.6665 33.2071 43.6665 33.6566C43.6665 34.1062 44.0398 34.471 44.4999 34.471H46.1665C46.6269 34.471 46.9999 34.1062 46.9999 33.6566C46.9999 33.2071 46.6269 32.8423 46.1665 32.8423Z" fill="black" stroke="black" stroke-width="0.45"/>
<path d="M19.5 32.8423H17.8334C17.373 32.8423 17 33.2071 17 33.6566C17 34.1062 17.373 34.471 17.8334 34.471H19.5C19.9601 34.471 20.3334 34.1062 20.3334 33.6566C20.3334 33.2071 19.9601 32.8423 19.5 32.8423Z" fill="black" stroke="black" stroke-width="0.45"/>
<path d="M38.6665 26.4568C36.8297 24.8005 34.4508 23.8864 31.9865 23.8898C29.5223 23.8934 27.1461 24.8143 25.3138 26.4759C23.4816 28.1375 22.3222 30.4229 22.0583 32.8935C21.3833 39.4058 25.75 40.1197 26.8666 45.7585C26.4684 45.8235 26.1735 46.1668 26.1665 46.5736V49.9348C26.1665 50.1576 26.2544 50.3712 26.4106 50.529C26.5669 50.6866 26.7789 50.7749 26.9999 50.7749H27.3166C31.65 59.5137 31.2999 59.1781 31.9999 59.1781C32.6999 59.1781 32.5166 59.1781 36.6832 50.7749H36.9998C37.2208 50.7749 37.4329 50.6866 37.5891 50.529C37.7454 50.3712 37.8333 50.1576 37.8333 49.9348V46.5736C37.8386 46.1572 37.5409 45.7999 37.1332 45.7332C38.1831 40.2714 41.9998 39.8513 41.9998 33.9694C41.9987 31.1013 40.7867 28.3691 38.6664 26.4572L38.6665 26.4568ZM36.1665 47.4139V49.0944H27.8337V47.4139H36.1665ZM31.2915 55.0269C31.7614 54.9597 32.2385 54.9597 32.7084 55.0269L32 56.4553L31.2915 55.0269ZM33.4748 53.489C32.5044 53.2623 31.4955 53.2623 30.525 53.489L29.1833 50.7748H34.8166L33.4748 53.489ZM38.383 39.3556L38.3833 39.3559C36.8551 41.1785 35.8392 43.3808 35.4416 45.7335H33.1249C36.3582 35.1624 36.3582 35.65 35.9999 35.1545C35.6416 34.6587 35.9416 34.8101 28.6663 34.8101C28.3962 34.7983 28.1373 34.9193 27.9719 35.1348C27.8061 35.35 27.7545 35.6333 27.8332 35.8938L30.8747 45.7339H28.558C27.4998 39.5662 23.1248 38.793 23.7163 33.0705H23.7165C23.9928 30.4205 25.4989 28.0597 27.7762 26.7078C30.0533 25.3559 32.8314 25.1733 35.2634 26.2154C37.6953 27.2578 39.493 29.4014 40.1082 31.9926C40.7232 34.5841 40.0831 37.3163 38.3828 39.3557L38.383 39.3556ZM32 43.7168L29.7915 36.4905H34.2081L32 43.7168Z" fill="black" stroke="black" stroke-width="0.45"/>
</g>
</g>
<defs>
<filter id="filter0_d_37_78" x="0" y="0" width="76" height="68" filterUnits="userSpaceOnUse" color-interpolation-filters="sRGB">
<feFlood flood-opacity="0" result="BackgroundImageFix"/>
<feColorMatrix in="SourceAlpha" type="matrix" values="0 0 0 0 0 0 0 0 0 0 0 0 0 0 0 0 0 0 127 0" result="hardAlpha"/>
<feOffset dx="6" dy="6"/>
<feComposite in2="hardAlpha" operator="out"/>
<feColorMatrix type="matrix" values="0 0 0 0 0 0 0 0 0 0 0 0 0 0 0 0 0 0 1 0"/>
<feBlend mode="normal" in2="BackgroundImageFix" result="effect1_dropShadow_37_78"/>
<feBlend mode="normal" in="SourceGraphic" in2="effect1_dropShadow_37_78" result="shape"/>
</filter>
<clipPath id="clip0_37_78">
<rect width="32" height="33" fill="white" transform="translate(16 18)"/>
</clipPath>
</defs>
</svg>
