<svg width="70" height="62" viewBox="0 0 70 62" fill="none" xmlns="http://www.w3.org/2000/svg">
<g filter="url(#filter0_d_37_68)">
<mask id="path-2-inside-1_37_68" fill="white">
<path d="M0 16H64V52C64 54.2091 62.2091 56 60 56H4C1.79086 56 0 54.2091 0 52V16Z"/>
</mask>
<path d="M0 16H64V52C64 54.2091 62.2091 56 60 56H4C1.79086 56 0 54.2091 0 52V16Z" fill="white"/>
<path d="M-3 15H67L61 17H3L-3 15ZM67 52C67 55.866 63.866 59 60 59H4C0.134007 59 -3 55.866 -3 52H3C3 52.5523 3.44772 53 4 53H60C60.5523 53 61 52.5523 61 52H67ZM4 59C0.134007 59 -3 55.866 -3 52V15L3 17V52C3 52.5523 3.44772 53 4 53V59ZM67 15V52C67 55.866 63.866 59 60 59V53C60.5523 53 61 52.5523 61 52V17L67 15Z" fill="black" mask="url(#path-2-inside-1_37_68)"/>
<mask id="path-4-inside-2_37_68" fill="white">
<path d="M0 4C0 1.79086 1.79086 0 4 0H60C62.2091 0 64 1.79086 64 4V16H0V4Z"/>
</mask>
<path d="M0 4C0 1.79086 1.79086 0 4 0H60C62.2091 0 64 1.79086 64 4V16H0V4Z" fill="#616161"/>
<path d="M-3 4C-3 0.134007 0.134007 -3 4 -3H60C63.866 -3 67 0.134007 67 4H61C61 3.44772 60.5523 3 60 3H4C3.44772 3 3 3.44772 3 4H-3ZM67 18H-3L3 14H61L67 18ZM-3 18V4C-3 0.134007 0.134007 -3 4 -3V3C3.44772 3 3 3.44772 3 4V14L-3 18ZM60 -3C63.866 -3 67 0.134007 67 4V18L61 14V4C61 3.44772 60.5523 3 60 3V-3Z" fill="black" mask="url(#path-4-inside-2_37_68)"/>
<circle cx="8.5" cy="8.5" r="2.5" fill="#D33232" stroke="black" stroke-width="2"/>
<circle cx="18.5" cy="8.5" r="2.5" fill="#E7D53A" stroke="black" stroke-width="2"/>
<circle cx="28.5" cy="8.5" r="2.5" fill="#269938" stroke="black" stroke-width="2"/>
<path d="M23.8146 42.5551L15.0001 34.9998L23.8146 27.4445M34.5179 22.4076L29.4811 47.592M41.4442 27.4444L48.999 34.9998L40.1844 42.5552" stroke="black" stroke-width="3" stroke-linecap="round" stroke-linejoin="round"/>
</g>
<defs>
<filter id="filter0_d_37_68" x="0" y="0" width="76" height="68" filterUnits="userSpaceOnUse" color-interpolation-filters="sRGB">
<feFlood flood-opacity="0" result="BackgroundImageFix"/>
<feColorMatrix in="SourceAlpha" type="matrix" values="0 0 0 0 0 0 0 0 0 0 0 0 0 0 0 0 0 0 127 0" result="hardAlpha"/>
<feOffset dx="6" dy="6"/>
<feComposite in2="hardAlpha" operator="out"/>
<feColorMatrix type="matrix" values="0 0 0 0 0 0 0 0 0 0 0 0 0 0 0 0 0 0 1 0"/>
<feBlend mode="normal" in2="BackgroundImageFix" result="effect1_dropShadow_37_68"/>
<feBlend mode="normal" in="SourceGraphic" in2="effect1_dropShadow_37_68" result="shape"/>
</filter>
</defs>
</svg>
