<svg width="24" height="24" viewBox="0 0 24 24" fill="none" xmlns="http://www.w3.org/2000/svg">
<mask id="path-1-inside-1_232_58" fill="white">
<path fill-rule="evenodd" clip-rule="evenodd" d="M2.75 0C1.23122 0 0 1.23122 0 2.75V21.25C0 22.7688 1.23122 24 2.75 24H21.25C22.7688 24 24 22.7688 24 21.25V2.75C24 1.23122 22.7688 0 21.25 0H2.75ZM7.70711 17.7071L12 13.4142L16.2929 17.7071L17.7071 16.2929L13.4142 12L17.7071 7.70711L16.2929 6.29289L12 10.5858L7.70711 6.29289L6.29289 7.70711L10.5858 12L6.29289 16.2929L7.70711 17.7071Z"/>
</mask>
<path fill-rule="evenodd" clip-rule="evenodd" d="M2.75 0C1.23122 0 0 1.23122 0 2.75V21.25C0 22.7688 1.23122 24 2.75 24H21.25C22.7688 24 24 22.7688 24 21.25V2.75C24 1.23122 22.7688 0 21.25 0H2.75ZM7.70711 17.7071L12 13.4142L16.2929 17.7071L17.7071 16.2929L13.4142 12L17.7071 7.70711L16.2929 6.29289L12 10.5858L7.70711 6.29289L6.29289 7.70711L10.5858 12L6.29289 16.2929L7.70711 17.7071Z" fill="#D33232"/>
<path d="M12 13.4142L13.4142 12L12 10.5858L10.5858 12L12 13.4142ZM7.70711 17.7071L6.29289 19.1213L7.70711 20.5355L9.12132 19.1213L7.70711 17.7071ZM16.2929 17.7071L14.8787 19.1213L16.2929 20.5355L17.7071 19.1213L16.2929 17.7071ZM17.7071 16.2929L19.1213 17.7071L20.5355 16.2929L19.1213 14.8787L17.7071 16.2929ZM13.4142 12L12 10.5858L10.5858 12L12 13.4142L13.4142 12ZM17.7071 7.70711L19.1213 9.12132L20.5355 7.70711L19.1213 6.29289L17.7071 7.70711ZM16.2929 6.29289L17.7071 4.87868L16.2929 3.46447L14.8787 4.87868L16.2929 6.29289ZM12 10.5858L10.5858 12L12 13.4142L13.4142 12L12 10.5858ZM7.70711 6.29289L9.12132 4.87868L7.70711 3.46447L6.29289 4.87868L7.70711 6.29289ZM6.29289 7.70711L4.87868 6.29289L3.46447 7.70711L4.87868 9.12132L6.29289 7.70711ZM10.5858 12L12 13.4142L13.4142 12L12 10.5858L10.5858 12ZM6.29289 16.2929L4.87868 14.8787L3.46447 16.2929L4.87868 17.7071L6.29289 16.2929ZM2 2.75C2 2.33579 2.33579 2 2.75 2V-2C0.126648 -2 -2 0.126647 -2 2.75H2ZM2 21.25V2.75H-2V21.25H2ZM2.75 22C2.33579 22 2 21.6642 2 21.25H-2C-2 23.8734 0.126647 26 2.75 26V22ZM21.25 22H2.75V26H21.25V22ZM22 21.25C22 21.6642 21.6642 22 21.25 22V26C23.8734 26 26 23.8734 26 21.25H22ZM22 2.75V21.25H26V2.75H22ZM21.25 2C21.6642 2 22 2.33579 22 2.75H26C26 0.126648 23.8734 -2 21.25 -2V2ZM2.75 2H21.25V-2H2.75V2ZM10.5858 12L6.29289 16.2929L9.12132 19.1213L13.4142 14.8284L10.5858 12ZM17.7071 16.2929L13.4142 12L10.5858 14.8284L14.8787 19.1213L17.7071 16.2929ZM16.2929 14.8787L14.8787 16.2929L17.7071 19.1213L19.1213 17.7071L16.2929 14.8787ZM12 13.4142L16.2929 17.7071L19.1213 14.8787L14.8284 10.5858L12 13.4142ZM16.2929 6.29289L12 10.5858L14.8284 13.4142L19.1213 9.12132L16.2929 6.29289ZM14.8787 7.70711L16.2929 9.12132L19.1213 6.29289L17.7071 4.87868L14.8787 7.70711ZM13.4142 12L17.7071 7.70711L14.8787 4.87868L10.5858 9.17157L13.4142 12ZM6.29289 7.70711L10.5858 12L13.4142 9.17157L9.12132 4.87868L6.29289 7.70711ZM7.70711 9.12132L9.12132 7.70711L6.29289 4.87868L4.87868 6.29289L7.70711 9.12132ZM12 10.5858L7.70711 6.29289L4.87868 9.12132L9.17157 13.4142L12 10.5858ZM7.70711 17.7071L12 13.4142L9.17157 10.5858L4.87868 14.8787L7.70711 17.7071ZM9.12132 16.2929L7.70711 14.8787L4.87868 17.7071L6.29289 19.1213L9.12132 16.2929Z" fill="black" mask="url(#path-1-inside-1_232_58)"/>
</svg>
