<?xml version="1.0" standalone="no"?>
<!DOCTYPE svg PUBLIC "-//W3C//DTD SVG 20010904//EN"
 "http://www.w3.org/TR/2001/REC-SVG-20010904/DTD/svg10.dtd">
<svg version="1.0" xmlns="http://www.w3.org/2000/svg"
 width="700.000000pt" height="700.000000pt" viewBox="0 0 700.000000 700.000000"
 preserveAspectRatio="xMidYMid meet">
<metadata>
Created by potrace 1.14, written by Peter Selinger 2001-2017
</metadata>
<g transform="translate(0.000000,700.000000) scale(0.100000,-0.100000)"
fill="#000000" stroke="none">
<path d="M3898 6945 c-1 -2 -32 -6 -68 -9 -125 -11 -175 -17 -190 -21 -8 -3
-33 -7 -55 -10 -399 -57 -862 -215 -1240 -425 -114 -63 -314 -189 -370 -233
-5 -4 -44 -33 -85 -64 -163 -122 -395 -336 -521 -478 -24 -28 -58 -66 -74 -85
-77 -88 -193 -243 -251 -335 -21 -33 -41 -62 -45 -65 -3 -3 -42 -66 -84 -140
-148 -257 -270 -538 -349 -800 -29 -95 -82 -307 -91 -360 -3 -19 -10 -57 -15
-85 -5 -27 -12 -66 -14 -85 -12 -95 -18 -147 -22 -170 -17 -109 -23 -487 -11
-660 12 -151 43 -379 71 -505 41 -189 137 -510 186 -620 10 -22 30 -69 45
-105 102 -240 289 -562 448 -770 198 -258 459 -523 682 -690 33 -25 62 -48 65
-51 19 -24 176 -119 205 -125 58 -10 118 4 159 38 73 60 95 153 55 234 -20 42
-31 54 -140 144 -107 89 -374 364 -428 443 -9 12 -23 31 -33 41 -10 11 -51 67
-92 125 -294 419 -481 875 -570 1386 l-24 140 41 75 c60 112 176 295 234 370
170 221 277 339 485 533 90 84 374 296 385 287 4 -3 7 -23 8 -45 3 -56 16
-194 21 -219 2 -11 6 -38 9 -61 11 -71 24 -143 61 -325 19 -93 128 -440 158
-505 8 -16 24 -55 36 -85 51 -128 161 -340 285 -548 6 -9 34 -53 64 -97 245
-363 573 -699 935 -958 110 -79 163 -90 250 -53 66 29 115 111 110 187 -4 63
-38 112 -131 190 -88 73 -266 247 -356 347 -218 243 -435 592 -575 922 -38 89
-128 346 -136 387 -2 10 -14 55 -25 101 -32 122 -64 295 -76 407 -4 33 -9 71
-12 85 -8 39 -12 521 -5 564 7 37 10 40 72 63 62 23 307 99 347 108 169 35
330 65 378 70 33 3 78 8 100 11 98 11 161 14 330 13 175 0 216 -1 340 -13 55
-6 256 -34 280 -40 6 -2 28 -6 50 -10 254 -49 546 -148 807 -274 126 -61 322
-173 393 -225 109 -79 217 -77 293 4 71 76 67 205 -8 273 -94 84 -346 257
-505 348 -263 150 -458 232 -835 353 -40 13 -230 60 -284 71 -40 8 -131 23
-171 29 -22 3 -53 7 -70 10 -157 24 -250 30 -510 30 -143 0 -291 -4 -330 -8
-137 -15 -161 -18 -225 -28 -98 -15 -117 -18 -219 -39 -52 -11 -95 -20 -97
-20 -5 0 62 190 101 290 42 107 158 344 212 435 148 248 300 447 491 646 79
82 87 87 135 94 29 4 61 9 72 11 11 1 54 6 95 10 41 3 89 8 105 10 44 5 423 5
470 0 22 -2 74 -7 115 -10 41 -4 86 -9 100 -11 14 -3 41 -7 60 -10 473 -75
893 -233 1303 -492 65 -41 134 -79 154 -85 141 -39 274 108 228 253 -15 45
-51 82 -160 164 -235 176 -499 331 -747 439 -21 9 -53 22 -71 30 -198 88 -579
198 -792 231 -22 3 -69 10 -105 16 -36 6 -90 13 -120 15 -30 3 -66 7 -80 11
-26 6 -606 14 -612 8z m-1312 -1171 c-164 -327 -279 -669 -340 -1012 l-22
-124 -139 -72 c-154 -80 -203 -108 -349 -205 -177 -118 -299 -212 -430 -331
-81 -73 -91 -83 -139 -129 l-46 -44 35 119 c208 698 638 1317 1219 1749 94 71
268 186 272 181 2 -2 -25 -61 -61 -132z"/>
</g>
</svg>
