<svg width="24" height="24" viewBox="0 0 24 24" fill="none" xmlns="http://www.w3.org/2000/svg">
<mask id="path-1-inside-1_232_65" fill="white">
<path fill-rule="evenodd" clip-rule="evenodd" d="M3 0C1.34315 0 0 1.34315 0 3V22C0 23.1046 0.89543 24 2 24H21C22.6569 24 24 22.6569 24 21V3C24 1.34315 22.6569 0 21 0H3ZM16.2931 7.0505L9.75736 13.5858L7.3432 11.1716L5.92896 12.5858L9.05021 15.7071L9.7573 16.4142L10.4644 15.7072L17.7073 8.46476L16.2931 7.0505Z"/>
</mask>
<path fill-rule="evenodd" clip-rule="evenodd" d="M3 0C1.34315 0 0 1.34315 0 3V22C0 23.1046 0.89543 24 2 24H21C22.6569 24 24 22.6569 24 21V3C24 1.34315 22.6569 0 21 0H3ZM16.2931 7.0505L9.75736 13.5858L7.3432 11.1716L5.92896 12.5858L9.05021 15.7071L9.7573 16.4142L10.4644 15.7072L17.7073 8.46476L16.2931 7.0505Z" fill="#269938"/>
<path d="M9.75736 13.5858L8.34313 15L9.7573 16.4142L11.1715 15.0001L9.75736 13.5858ZM16.2931 7.0505L17.7074 5.63633L16.2932 4.22208L14.8789 5.63625L16.2931 7.0505ZM7.3432 11.1716L8.75743 9.7574L7.34324 8.34317L5.92901 9.75736L7.3432 11.1716ZM5.92896 12.5858L4.51477 11.1716L3.10054 12.5858L4.51473 14L5.92896 12.5858ZM9.05021 15.7071L10.4644 14.2929L10.4644 14.2929L9.05021 15.7071ZM9.7573 16.4142L8.34306 17.8284L9.75724 19.2426L11.1715 17.8285L9.7573 16.4142ZM10.4644 15.7072L9.05025 14.2929L9.05025 14.2929L10.4644 15.7072ZM17.7073 8.46476L19.1214 9.87902L20.5357 8.46485L19.1215 7.05059L17.7073 8.46476ZM2 3C2 2.44772 2.44772 2 3 2V-2C0.238576 -2 -2 0.238576 -2 3H2ZM2 22V3H-2V22H2ZM2 22H2H-2C-2 24.2091 -0.209141 26 2 26V22ZM21 22H2V26H21V22ZM22 21C22 21.5523 21.5523 22 21 22V26C23.7614 26 26 23.7614 26 21H22ZM22 3V21H26V3H22ZM21 2C21.5523 2 22 2.44772 22 3H26C26 0.238577 23.7614 -2 21 -2V2ZM3 2H21V-2H3V2ZM11.1715 15.0001L17.7073 8.46476L14.8789 5.63625L8.34319 12.1716L11.1715 15.0001ZM5.92896 12.5858L8.34313 15L11.1716 12.1716L8.75743 9.7574L5.92896 12.5858ZM7.34316 14L8.75739 12.5858L5.92901 9.75736L4.51477 11.1716L7.34316 14ZM10.4644 14.2929L7.3432 11.1716L4.51473 14L7.63598 17.1213L10.4644 14.2929ZM11.1715 15L10.4644 14.2929L7.63598 17.1213L8.34306 17.8284L11.1715 15ZM9.05025 14.2929L8.34313 15L11.1715 17.8285L11.8786 17.1214L9.05025 14.2929ZM16.2931 7.0505L9.05025 14.2929L11.8786 17.1214L19.1214 9.87902L16.2931 7.0505ZM14.8788 8.46467L16.293 9.87893L19.1215 7.05059L17.7074 5.63633L14.8788 8.46467Z" fill="black" mask="url(#path-1-inside-1_232_65)"/>
</svg>
