<svg id="Слой_1" data-name="Слой 1" xmlns="http://www.w3.org/2000/svg" xmlns:xlink="http://www.w3.org/1999/xlink" viewBox="0 0 70 62"><defs><style>.cls-1{fill:none;}.cls-2{fill:#616161;}.cls-3{fill:#fff;}.cls-4{fill:#d33232;}.cls-5{fill:#e7d53a;}.cls-6{fill:#269938;}.cls-7{clip-path:url(#clip-path);}.cls-8{stroke:#000;stroke-width:0.45px;}</style><clipPath id="clip-path"><rect class="cls-1" x="16" y="17.8" width="32" height="33"/></clipPath></defs><path d="M66,6H64V4a4,4,0,0,0-4-4H4A4,4,0,0,0,0,4V52a4,4,0,0,0,4,4H6v2a4,4,0,0,0,4,4H66a4,4,0,0,0,4-4V10A4,4,0,0,0,66,6ZM61,52a1,1,0,0,1-1,1H4a1,1,0,0,1-1-1V17H61Zm0-38H3V4A1,1,0,0,1,4,3H60a1,1,0,0,1,1,1Z"/><path d="M61,6v8H6V10a4,4,0,0,1,4-4Z"/><path d="M61,17V52a1,1,0,0,1-1,1H6V17Z"/><path class="cls-2" d="M61,4V14H3V4A1,1,0,0,1,4,3H60A1,1,0,0,1,61,4Z"/><path class="cls-3" d="M61,17V52a1,1,0,0,1-1,1H4a1,1,0,0,1-1-1V17Z"/><circle class="cls-4" cx="8.5" cy="8.5" r="1.5"/><path d="M8.5,7A1.5,1.5,0,1,1,7,8.5,1.5,1.5,0,0,1,8.5,7Zm0-2A3.5,3.5,0,1,0,12,8.5,3.5,3.5,0,0,0,8.5,5Z"/><circle class="cls-5" cx="18.5" cy="8.5" r="1.5"/><path d="M18.5,7A1.5,1.5,0,1,1,17,8.5,1.5,1.5,0,0,1,18.5,7Zm0-2A3.5,3.5,0,1,0,22,8.5,3.5,3.5,0,0,0,18.5,5Z"/><circle class="cls-6" cx="28.5" cy="8.5" r="1.5"/><path d="M28.5,7A1.5,1.5,0,1,1,27,8.5,1.5,1.5,0,0,1,28.5,7Zm0-2A3.5,3.5,0,1,0,32,8.5,3.5,3.5,0,0,0,28.5,5Z"/><g class="cls-7"><path class="cls-8" d="M32.83,21.24V19.61a.83.83,0,0,0-1.66,0v1.63a.83.83,0,0,0,1.66,0Z"/><path class="cls-8" d="M23.16,25.63a.83.83,0,0,0,.76-.5.82.82,0,0,0-.17-.89l-1.18-1.15a.85.85,0,0,0-1.18,0,.79.79,0,0,0,0,1.15c1.28,1.25,1.33,1.39,1.77,1.39Z"/><path class="cls-8" d="M41.42,23.09l-1.17,1.15a.82.82,0,0,0,0,1.11.84.84,0,0,0,1.13,0l1.19-1.15a.81.81,0,0,0,0-1.15.86.86,0,0,0-1.19,0Z"/><path class="cls-8" d="M46.17,32.64H44.5a.82.82,0,0,0-.83.81.83.83,0,0,0,.83.82h1.67a.83.83,0,0,0,.83-.82A.82.82,0,0,0,46.17,32.64Z"/><path class="cls-8" d="M19.5,32.64H17.83a.82.82,0,0,0-.83.81.83.83,0,0,0,.83.82H19.5a.83.83,0,0,0,.83-.82A.82.82,0,0,0,19.5,32.64Z"/><path class="cls-8" d="M38.67,26.25a10,10,0,0,0-13.36,0,10.1,10.1,0,0,0-3.25,6.42c-.68,6.51,3.69,7.23,4.81,12.87a.82.82,0,0,0-.7.81v3.36a.85.85,0,0,0,.24.6.87.87,0,0,0,.59.24h.32C31.65,59.31,31.3,59,32,59s.52,0,4.68-8.41H37a.87.87,0,0,0,.59-.24.85.85,0,0,0,.24-.6V46.37a.83.83,0,0,0-.7-.84c1-5.46,4.87-5.88,4.87-11.76a10.14,10.14,0,0,0-3.33-7.52Zm-2.5,21v1.68H27.83V47.21Zm-4.88,7.61a5.62,5.62,0,0,1,1.42,0L32,56.25Zm2.18-1.53a6.39,6.39,0,0,0-2.95,0l-1.34-2.72h5.64Zm4.91-14.14h0a13.55,13.55,0,0,0-2.94,6.38H33.12C36.36,35,36.36,35.45,36,35s-.06-.34-7.33-.34a.84.84,0,0,0-.84,1.08l3,9.84H28.56c-1.06-6.17-5.44-6.94-4.84-12.66h0a8.41,8.41,0,0,1,4.06-6.37A8.27,8.27,0,0,1,35.26,26a8.43,8.43,0,0,1,3.12,13.14ZM32,43.51l-2.21-7.22h4.42Z"/></g></svg>