<svg id="Слой_1" data-name="Слой 1" xmlns="http://www.w3.org/2000/svg" xmlns:xlink="http://www.w3.org/1999/xlink" viewBox="0 0 65 60"><defs><style>.cls-1,.cls-9{fill:none;}.cls-2{fill:#444;}.cls-3{fill:#fffef3;}.cls-4{fill:#d33232;}.cls-5{fill:#e7d53a;}.cls-6{fill:#269938;}.cls-7{fill:#7d7d7d;}.cls-8{clip-path:url(#clip-path);}.cls-9{stroke:#000;stroke-linecap:round;stroke-linejoin:round;stroke-width:1.7px;}</style><clipPath id="clip-path"><rect class="cls-1" x="5.07" y="19.09" width="52" height="33"/></clipPath></defs><path d="M59.22,17.29V52.88a1.08,1.08,0,0,1-.16.57,1,1,0,0,0,.17-.57V17.29Z"/><path d="M62.09,3.17H62A3.92,3.92,0,0,0,58.25,0H3.88A4,4,0,0,0,0,4.07V52.88a4,4,0,0,0,3,4L3,57A3.91,3.91,0,0,0,6.8,60H61.12A4,4,0,0,0,65,55.93V6.51A4,4,0,0,0,62.09,3.17Zm-59.18.9a1,1,0,0,1,1-1H58.25a1,1,0,0,1,1,1V14.24H2.91ZM59.23,52.88a1,1,0,0,1-.17.57,1,1,0,0,1-.8.45H3.89a1,1,0,0,1-.81-.45,1,1,0,0,1-.17-.57V17.29H59.23Z"/><path class="cls-2" d="M59.22,4.06V14.23H2.91V4.06a1,1,0,0,1,1-1H58.25A1,1,0,0,1,59.22,4.06Z"/><path class="cls-3" d="M59.23,17.29V52.88a1,1,0,0,1-.17.57,1,1,0,0,1-.8.45H3.89a1,1,0,0,1-.81-.45,1.08,1.08,0,0,1-.16-.57V17.29Z"/><circle class="cls-4" cx="8.41" cy="8.64" r="1.5"/><path d="M10.85,6.14a3.46,3.46,0,0,0-2.44-1,3.5,3.5,0,0,0-3.5,3.5,3.52,3.52,0,0,0,3.5,3.5,3.5,3.5,0,0,0,3.5-3.5A3.46,3.46,0,0,0,10.85,6.14Zm-2.44,4a1.5,1.5,0,1,1,1.5-1.5A1.49,1.49,0,0,1,8.41,10.14Z"/><circle class="cls-5" cx="18.41" cy="8.64" r="1.5"/><path d="M20.85,6.14a3.5,3.5,0,0,0-5.94,2.5,3.5,3.5,0,0,0,7,0A3.46,3.46,0,0,0,20.85,6.14Zm-2.44,4a1.5,1.5,0,1,1,1.5-1.5A1.49,1.49,0,0,1,18.41,10.14Z"/><circle class="cls-6" cx="28.41" cy="8.64" r="1.5"/><path d="M30.85,6.14a3.5,3.5,0,0,0-5.94,2.5,3.5,3.5,0,0,0,7,0A3.46,3.46,0,0,0,30.85,6.14Zm-2.44,4a1.5,1.5,0,1,1,1.5-1.5A1.49,1.49,0,0,1,28.41,10.14Z"/><rect class="cls-7" x="42.23" y="5.14" width="15" height="7" rx="1"/><g class="cls-8"><path class="cls-9" d="M7.34,42.82l-.8,6.37,5.23-3.86M7.34,42.82l4.43,2.51M7.34,42.82,16,28.19M11.77,45.33,20.38,30.7m-2.95-5,2-3.34,4.43,2.51-3.44,5.86m-3-5-3.4-2m3.37,1.91L16,28.19m-1.88-4.43L10.2,30.35m3.87-6.59,1.72-2.93M16,28.19l4.43,2.51"/><path class="cls-9" d="M38.8,44l2.27,1.3m-.56-4.21,1.33.77M42,38.58l2.34,1.35m-.55-4.39,1.44.83m.18-3.61,2.36,1.33m-.77-4,1.42.82m.22-3.62,2.46,1.36m-.88-4.07,1.65,1M37.18,46.77l4.26,2.42L52.29,30.65,56,24.42,51.68,22l-2.23,3.8-1.38,2.43Z"/><path class="cls-9" d="M22.88,42.91l-.81,6.18,5.16-3.76m-4.35-2.42L31.41,28.7l1.47-2.44L34.83,23l2.39.83,2,1.58-3.46,5.66L27.23,45.33m-4.35-2.42,2.71.3m1.64,2.12-1.64-2.12m7.38-17,2.4.83m2,1.58-2-1.58m0,0L25.59,43.21"/></g></svg>