<svg id="Слой_1" data-name="Слой 1" xmlns="http://www.w3.org/2000/svg" viewBox="0 0 70 62"><defs><style>.cls-1{fill:#616161;}.cls-2{fill:#fff;}.cls-3{fill:#d33232;}.cls-4{fill:#e7d53a;}.cls-5{fill:#269938;}.cls-6{fill:none;stroke:#000;stroke-linecap:round;stroke-linejoin:round;stroke-width:3px;}</style></defs><path d="M66,6H64V4a4,4,0,0,0-4-4H4A4,4,0,0,0,0,4V52a4,4,0,0,0,4,4H6v2a4,4,0,0,0,4,4H66a4,4,0,0,0,4-4V10A4,4,0,0,0,66,6ZM61,52a1,1,0,0,1-1,1H4a1,1,0,0,1-1-1V17H61Zm0-38H3V4A1,1,0,0,1,4,3H60a1,1,0,0,1,1,1Z"/><path d="M61,6v8H6V10a4,4,0,0,1,4-4Z"/><path d="M61,17V52a1,1,0,0,1-1,1H6V17Z"/><path class="cls-1" d="M61,4V14H3V4A1,1,0,0,1,4,3H60A1,1,0,0,1,61,4Z"/><path class="cls-2" d="M61,17V52a1,1,0,0,1-1,1H4a1,1,0,0,1-1-1V17Z"/><circle class="cls-3" cx="8.5" cy="8.5" r="1.5"/><path d="M8.5,7A1.5,1.5,0,1,1,7,8.5,1.5,1.5,0,0,1,8.5,7Zm0-2A3.5,3.5,0,1,0,12,8.5,3.5,3.5,0,0,0,8.5,5Z"/><circle class="cls-4" cx="18.5" cy="8.5" r="1.5"/><path d="M18.5,7A1.5,1.5,0,1,1,17,8.5,1.5,1.5,0,0,1,18.5,7Zm0-2A3.5,3.5,0,1,0,22,8.5,3.5,3.5,0,0,0,18.5,5Z"/><circle class="cls-5" cx="28.5" cy="8.5" r="1.5"/><path d="M28.5,7A1.5,1.5,0,1,1,27,8.5,1.5,1.5,0,0,1,28.5,7Zm0-2A3.5,3.5,0,1,0,32,8.5,3.5,3.5,0,0,0,28.5,5Z"/><path class="cls-6" d="M23.82,42.56,15,35l8.82-7.56m10.7-5-5,25.18m12-20.15L49,35l-8.82,7.56"/></svg>