<svg id="Слой_1" data-name="Слой 1" xmlns="http://www.w3.org/2000/svg" viewBox="0 0 65 60"><defs><style>.cls-1{fill:#444;}.cls-2{fill:#fffef3;}.cls-3{fill:#d33232;}.cls-4{fill:#e7d53a;}.cls-5{fill:#269938;}.cls-6{fill:#7d7d7d;}.cls-7{fill:none;stroke:#000;stroke-linecap:round;stroke-linejoin:round;stroke-width:2.5px;}</style></defs><path d="M59.22,17.29V52.88a1.08,1.08,0,0,1-.16.57,1,1,0,0,0,.17-.57V17.29Z"/><path d="M62.09,3.17H62A3.92,3.92,0,0,0,58.25,0H3.88A4,4,0,0,0,0,4.07V52.88a4,4,0,0,0,3,4L3,57A3.91,3.91,0,0,0,6.8,60H61.12A4,4,0,0,0,65,55.93V6.51A4,4,0,0,0,62.09,3.17Zm-59.18.9a1,1,0,0,1,1-1H58.25a1,1,0,0,1,1,1V14.24H2.91ZM59.23,52.88a1,1,0,0,1-.17.57,1,1,0,0,1-.8.45H3.89a1,1,0,0,1-.81-.45,1,1,0,0,1-.17-.57V17.29H59.23Z"/><path class="cls-1" d="M59.22,4.06V14.23H2.91V4.06a1,1,0,0,1,1-1H58.25A1,1,0,0,1,59.22,4.06Z"/><path class="cls-2" d="M59.23,17.29V52.88a1,1,0,0,1-.17.57,1,1,0,0,1-.8.45H3.89a1,1,0,0,1-.81-.45,1.08,1.08,0,0,1-.16-.57V17.29Z"/><circle class="cls-3" cx="8.41" cy="8.64" r="1.5"/><path d="M10.85,6.14a3.46,3.46,0,0,0-2.44-1,3.5,3.5,0,0,0-3.5,3.5,3.52,3.52,0,0,0,3.5,3.5,3.5,3.5,0,0,0,3.5-3.5A3.46,3.46,0,0,0,10.85,6.14Zm-2.44,4a1.5,1.5,0,1,1,1.5-1.5A1.49,1.49,0,0,1,8.41,10.14Z"/><circle class="cls-4" cx="18.41" cy="8.64" r="1.5"/><path d="M20.85,6.14a3.5,3.5,0,0,0-5.94,2.5,3.5,3.5,0,0,0,7,0A3.46,3.46,0,0,0,20.85,6.14Zm-2.44,4a1.5,1.5,0,1,1,1.5-1.5A1.49,1.49,0,0,1,18.41,10.14Z"/><circle class="cls-5" cx="28.41" cy="8.64" r="1.5"/><path d="M30.85,6.14a3.5,3.5,0,0,0-5.94,2.5,3.5,3.5,0,0,0,7,0A3.46,3.46,0,0,0,30.85,6.14Zm-2.44,4a1.5,1.5,0,1,1,1.5-1.5A1.49,1.49,0,0,1,28.41,10.14Z"/><rect class="cls-6" x="42.23" y="5.14" width="15" height="7" rx="1"/><path class="cls-7" d="M21,43.17l-8.82-7.56L21,28.05m10.7-5-5,25.18m12-20.15,7.48,7.53L37.4,43.17"/></svg>