<svg id="Слой_1" data-name="Слой 1" xmlns="http://www.w3.org/2000/svg" xmlns:xlink="http://www.w3.org/1999/xlink" viewBox="0 0 65 60"><defs><style>.cls-1{fill:none;}.cls-2{fill:#444;}.cls-3{fill:#fffef3;}.cls-4{fill:#d33232;}.cls-5{fill:#e7d53a;}.cls-6{fill:#269938;}.cls-7{fill:#7d7d7d;}.cls-8{clip-path:url(#clip-path);}</style><clipPath id="clip-path"><rect class="cls-1" x="14" y="19.06" width="32" height="33"/></clipPath></defs><path d="M59.22,17.29V52.88a1.08,1.08,0,0,1-.16.57,1,1,0,0,0,.17-.57V17.29Z"/><path d="M62.09,3.17H62A3.92,3.92,0,0,0,58.25,0H3.88A4,4,0,0,0,0,4.07V52.88a4,4,0,0,0,3,4L3,57A3.91,3.91,0,0,0,6.8,60H61.12A4,4,0,0,0,65,55.93V6.51A4,4,0,0,0,62.09,3.17Zm-59.18.9a1,1,0,0,1,1-1H58.25a1,1,0,0,1,1,1V14.24H2.91ZM59.23,52.88a1,1,0,0,1-.17.57,1,1,0,0,1-.8.45H3.89a1,1,0,0,1-.81-.45,1,1,0,0,1-.17-.57V17.29H59.23Z"/><path class="cls-2" d="M59.22,4.06V14.23H2.91V4.06a1,1,0,0,1,1-1H58.25A1,1,0,0,1,59.22,4.06Z"/><path class="cls-3" d="M59.23,17.29V52.88a1,1,0,0,1-.17.57,1,1,0,0,1-.8.45H3.89a1,1,0,0,1-.81-.45,1.08,1.08,0,0,1-.16-.57V17.29Z"/><circle class="cls-4" cx="8.41" cy="8.64" r="1.5"/><path d="M10.85,6.14a3.46,3.46,0,0,0-2.44-1,3.5,3.5,0,0,0-3.5,3.5,3.52,3.52,0,0,0,3.5,3.5,3.5,3.5,0,0,0,3.5-3.5A3.46,3.46,0,0,0,10.85,6.14Zm-2.44,4a1.5,1.5,0,1,1,1.5-1.5A1.49,1.49,0,0,1,8.41,10.14Z"/><circle class="cls-5" cx="18.41" cy="8.64" r="1.5"/><path d="M20.85,6.14a3.5,3.5,0,0,0-5.94,2.5,3.5,3.5,0,0,0,7,0A3.46,3.46,0,0,0,20.85,6.14Zm-2.44,4a1.5,1.5,0,1,1,1.5-1.5A1.49,1.49,0,0,1,18.41,10.14Z"/><circle class="cls-6" cx="28.41" cy="8.64" r="1.5"/><path d="M30.85,6.14a3.5,3.5,0,0,0-5.94,2.5,3.5,3.5,0,0,0,7,0A3.46,3.46,0,0,0,30.85,6.14Zm-2.44,4a1.5,1.5,0,1,1,1.5-1.5A1.49,1.49,0,0,1,28.41,10.14Z"/><rect class="cls-7" x="42.23" y="5.14" width="15" height="7" rx="1"/><g class="cls-8"><path d="M30.83,22.5V20.87a.83.83,0,0,0-1.66,0V22.5a.83.83,0,0,0,1.66,0Z"/><path d="M30,23.56a1.07,1.07,0,0,1-1.06-1.06V20.87a1.06,1.06,0,0,1,2.12,0V22.5A1.07,1.07,0,0,1,30,23.56Zm0-3.29a.6.6,0,0,0-.6.6V22.5a.6.6,0,1,0,1.2,0V20.87A.6.6,0,0,0,30,20.27Z"/><path d="M21.16,26.89a.82.82,0,0,0,.59-1.39l-1.18-1.15a.86.86,0,0,0-1.18,0,.79.79,0,0,0,0,1.12l0,0C20.67,26.75,20.72,26.89,21.16,26.89Z"/><path d="M21.16,27.12h0c-.46,0-.6-.14-1.37-.91l-.56-.55,0,0a1,1,0,0,1-.27-.72,1,1,0,0,1,.32-.71,1.08,1.08,0,0,1,1.49,0l1.18,1.15a1,1,0,0,1-.75,1.78ZM20,24.34a.6.6,0,0,0-.43.18.5.5,0,0,0-.18.39.56.56,0,0,0,.15.41l.58.57c.76.75.8.78,1.06.78a.6.6,0,0,0,.55-.37.57.57,0,0,0-.12-.64l-1.18-1.15A.63.63,0,0,0,20,24.34Z"/><path d="M39.42,24.35,38.25,25.5a.82.82,0,0,0,0,1.11.84.84,0,0,0,1.13,0l1.19-1.15a.8.8,0,0,0,0-1.14h0a.86.86,0,0,0-1.19,0Z"/><path d="M38.81,27.06a1.08,1.08,0,0,1-.71-.28,1.06,1.06,0,0,1,0-1.43l1-1,0,0,.16-.16a1.1,1.1,0,0,1,1.51,0,1,1,0,0,1,0,1.47l-1.19,1.15A1.09,1.09,0,0,1,38.81,27.06Zm.92-2.71h0l-1.33,1.31a.6.6,0,0,0,0,.8.61.61,0,0,0,.81,0l1.18-1.15a.58.58,0,0,0,0-.82A.63.63,0,0,0,39.73,24.35Z"/><path d="M44.17,33.9H42.5a.83.83,0,0,0-.83.81h0a.83.83,0,0,0,.83.82h1.67a.82.82,0,1,0,0-1.63Z"/><path d="M44.17,35.76H42.5a1,1,0,1,1,0-2.08h1.69a1,1,0,0,1,1,1A1,1,0,0,1,44.17,35.76Zm-1.67-.45h1.67a.62.62,0,0,0,.61-.6.6.6,0,0,0-.6-.58H42.49a.61.61,0,0,0-.6.59.62.62,0,0,0,.61.59Z"/><path d="M17.5,33.9H15.83a.83.83,0,0,0-.83.81h0a.83.83,0,0,0,.83.82H17.5a.82.82,0,1,0,0-1.63Z"/><path d="M17.5,35.76H15.83a1,1,0,1,1,0-2.08h1.69a1.05,1.05,0,0,1,1,1A1.06,1.06,0,0,1,17.5,35.76Zm-1.67-.45H17.5a.6.6,0,0,0,.6-.6.59.59,0,0,0-.6-.58H15.83a.59.59,0,1,0,0,1.18Z"/><path d="M36.67,27.51a10,10,0,0,0-13.36,0,10.15,10.15,0,0,0-3.25,6.42c-.68,6.51,3.69,7.23,4.81,12.87a.83.83,0,0,0-.7.81V51a.83.83,0,0,0,.24.6.87.87,0,0,0,.59.24h.32c4.33,8.76,4,8.45,4.68,8.45s.52,0,4.68-8.41H35a.87.87,0,0,0,.59-.24.83.83,0,0,0,.24-.6V47.63a.84.84,0,0,0-.7-.84C36.13,41.33,40,40.91,40,35A10.17,10.17,0,0,0,36.67,27.51Zm-2.5,21v1.68H25.83V48.47Zm-4.88,7.61a5.62,5.62,0,0,1,1.42,0L30,57.51Zm2.18-1.53a6.39,6.39,0,0,0-2.95,0l-1.34-2.72h5.64Zm4.91-14.14h0a13.6,13.6,0,0,0-2.94,6.38H31.12C34.36,36.26,34.36,36.71,34,36.26s-.06-.34-7.33-.34a.83.83,0,0,0-.87.81.63.63,0,0,0,0,.27l3,9.84H26.56c-1.06-6.17-5.44-6.94-4.84-12.66h0a8.45,8.45,0,0,1,4.06-6.37,8.27,8.27,0,0,1,7.48-.55,8.44,8.44,0,0,1,4.39,11.09,8.67,8.67,0,0,1-1.27,2ZM30,44.77l-2.21-7.22h4.42Z"/><path d="M29.85,60.49c-.54,0-.62-.18-2.48-4-.55-1.13-1.26-2.58-2.19-4.46H25a1.08,1.08,0,0,1-.75-.31,1.07,1.07,0,0,1-.31-.76V47.61a1.08,1.08,0,0,1,.67-1,13.06,13.06,0,0,0-2.47-5c-1.39-2-2.7-3.86-2.3-7.69a10.2,10.2,0,0,1,17-6.56h0A10.32,10.32,0,0,1,40.22,35a9.82,9.82,0,0,1-2.4,6.59,11.73,11.73,0,0,0-2.43,5,1,1,0,0,1,.66,1V51a1,1,0,0,1-.3.76,1.08,1.08,0,0,1-.75.31h-.18l-2,4.05C30.7,60.49,30.7,60.49,30,60.49h-.15ZM30,25.17a9.77,9.77,0,0,0-6.53,2.51A9.92,9.92,0,0,0,20.28,34c-.38,3.66.89,5.47,2.23,7.38a13.24,13.24,0,0,1,2.58,5.42l.05.23-.24,0a.58.58,0,0,0-.5.58V51a.62.62,0,0,0,.17.45.66.66,0,0,0,.43.17h.46l.06.12c1,1.94,1.69,3.44,2.25,4.59C29.6,60,29.62,60.06,29.93,60H30c.4,0,.42,0,2.42-4.11l2.06-4.18.06-.12H35a.61.61,0,0,0,.61-.61V47.63a.61.61,0,0,0-.52-.61l-.22,0,0-.23a12,12,0,0,1,2.55-5.4A9.45,9.45,0,0,0,39.78,35a10,10,0,0,0-3.26-7.35A9.77,9.77,0,0,0,30,25.17ZM30,58l-1.06-2.07.32,0a6.11,6.11,0,0,1,1.48,0l.32,0Zm-.36-1.7L30,57l.36-.71Q30,56.29,29.64,56.31ZM28.4,54.85l-1.58-3.2h6.36l-1.59,3.2-.17,0a6.24,6.24,0,0,0-2.85,0ZM30,54.2a6.19,6.19,0,0,1,1.35.14l1.11-2.24H27.54l1.1,2.24A6.22,6.22,0,0,1,30,54.2Zm4.39-3.78H25.6V48.25h.23l8.56,0ZM26.06,50H34V48.74l-7.89,0Zm3.07-2.9H26.37l0-.19a13.75,13.75,0,0,0-2.7-6c-1.28-1.83-2.48-3.56-2.14-6.75a8.66,8.66,0,0,1,4.16-6.54,8.53,8.53,0,0,1,7.69-.56,8.64,8.64,0,0,1,4.5,11.38,8.53,8.53,0,0,1-1.25,2l-.05.12a13.47,13.47,0,0,0-2.89,6.27l0,.19H30.82l.08-.29c.71-2.31,1.27-4.09,1.69-5.47C34,36.83,34,36.65,33.86,36.44l-.07-.08c-.18-.22-.18-.23-3.63-.22-.91,0-2.06,0-3.52,0a.62.62,0,0,0-.62.59.69.69,0,0,0,0,.2Zm-2.38-.45h1.78l-2.92-9.55a1.39,1.39,0,0,1,0-.35,1.07,1.07,0,0,1,1.11-1h3.48c3.66,0,3.67,0,4,.4L34,36.3l.18-.14c.33.4.33.4-1.19,5.27l-1.6,5.18h1.83a13.85,13.85,0,0,1,2.91-6.24v0l.05-.06a8.21,8.21,0,0,0-3-12.79A8.05,8.05,0,0,0,25.9,28a8.22,8.22,0,0,0-4,6.2c-.31,3,.79,4.61,2.07,6.45A14.27,14.27,0,0,1,26.75,46.62ZM30,45.54l-2.51-8.21h5Zm-1.91-7.76L30,44l1.91-6.22Z"/></g></svg>