<svg id="Слой_1" data-name="Слой 1" xmlns="http://www.w3.org/2000/svg" xmlns:xlink="http://www.w3.org/1999/xlink" viewBox="0 0 70 62"><defs><style>.cls-1,.cls-5{fill:none;}.cls-2{fill:#616161;}.cls-3{fill:#fff;}.cls-4{clip-path:url(#clip-path);}.cls-5{stroke:#000;stroke-linecap:round;stroke-linejoin:round;stroke-width:1.7px;}.cls-6{fill:#d33232;}.cls-7{fill:#e7d53a;}.cls-8{fill:#269938;}</style><clipPath id="clip-path"><rect class="cls-1" x="6" y="18" width="52" height="33"/></clipPath></defs><path d="M66,6H64V4a4,4,0,0,0-4-4H4A4,4,0,0,0,0,4V52a4,4,0,0,0,4,4H6v2a4,4,0,0,0,4,4H66a4,4,0,0,0,4-4V10A4,4,0,0,0,66,6ZM61,52a1,1,0,0,1-1,1H4a1,1,0,0,1-1-1V17H61Zm0-38H3V4A1,1,0,0,1,4,3H60a1,1,0,0,1,1,1Z"/><path d="M61,6v8H6V10a4,4,0,0,1,4-4Z"/><path d="M61,17V52a1,1,0,0,1-1,1H6V17Z"/><path class="cls-2" d="M61,4V14H3V4A1,1,0,0,1,4,3H60A1,1,0,0,1,61,4Z"/><path class="cls-3" d="M61,17V52a1,1,0,0,1-1,1H4a1,1,0,0,1-1-1V17Z"/><g class="cls-4"><path class="cls-5" d="M8.27,41.73l-.8,6.37,5.23-3.86M8.27,41.73l4.43,2.51M8.27,41.73,16.88,27.1M12.7,44.24l8.61-14.63m-2.95-5,2-3.34,4.43,2.51-3.44,5.86m-2.95-5L15,22.67m3.37,1.91L16.88,27.1M15,22.67l-3.87,6.59M15,22.67l1.72-2.93m.17,7.36,4.43,2.51"/><path class="cls-5" d="M39.73,42.91,42,44.21M41.44,40l1.33.77m.13-3.28,2.34,1.35m-.55-4.39,1.44.83m.18-3.61L48.67,33M47.9,29l1.42.82m.22-3.62L52,27.56m-.88-4.07,1.65,1M38.11,45.68l4.26,2.42L53.22,29.56l3.66-6.23-4.27-2.42-2.23,3.8L49,27.14Z"/><path class="cls-5" d="M23.81,41.82,23,48l5.16-3.76m-4.35-2.42,8.53-14.21,1.47-2.44,1.95-3.24,2.39.83,2,1.58L36.69,30,28.16,44.24m-4.35-2.42,2.71.3m1.64,2.12-1.64-2.12m7.38-17,2.4.83m2,1.58-2-1.58m0,0L26.52,42.12"/></g><circle class="cls-6" cx="8.5" cy="8.5" r="1.5"/><path d="M8.5,7A1.5,1.5,0,1,1,7,8.5,1.5,1.5,0,0,1,8.5,7Zm0-2A3.5,3.5,0,1,0,12,8.5,3.5,3.5,0,0,0,8.5,5Z"/><circle class="cls-7" cx="18.5" cy="8.5" r="1.5"/><path d="M18.5,7A1.5,1.5,0,1,1,17,8.5,1.5,1.5,0,0,1,18.5,7Zm0-2A3.5,3.5,0,1,0,22,8.5,3.5,3.5,0,0,0,18.5,5Z"/><circle class="cls-8" cx="28.5" cy="8.5" r="1.5"/><path d="M28.5,7A1.5,1.5,0,1,1,27,8.5,1.5,1.5,0,0,1,28.5,7Zm0-2A3.5,3.5,0,1,0,32,8.5,3.5,3.5,0,0,0,28.5,5Z"/></svg>