<svg width="100" height="40" viewBox="0 0 100 40" fill="none" xmlns="http://www.w3.org/2000/svg">
<g clip-path="url(#clip0_1_4)">
<path d="M7.85623 4.12232L10.1935 10.537H5.50918L7.85623 4.12232ZM6.59923 0.0963154L6.52067 0.317842L0 18.1267H2.73004L4.63518 12.9063H11.0576L12.9726 18.1267H15.7125L9.09359 0.0963154H6.59923Z" fill="black"/>
<path d="M22.0367 9.3908L25.2774 10.354C25.8407 10.5114 26.3432 10.83 26.721 11.269C27.0868 11.7126 27.2815 12.2685 27.2709 12.8389C27.2478 13.6266 26.9071 14.3732 26.3235 14.9149C25.7399 15.4566 24.9611 15.7491 24.1579 15.7284C23.5586 15.738 22.9692 15.5776 22.4606 15.2667C21.9519 14.9557 21.5456 14.5074 21.2904 13.9754L21.1529 13.6961L20.8583 13.8213L18.8059 14.6978L18.9433 14.9964C19.3352 15.808 19.9179 16.5167 20.6435 17.0644C21.3691 17.612 22.2169 17.9829 23.1171 18.1465C24.0174 18.3101 24.9444 18.2618 25.8219 18.0055C26.6993 17.7492 27.5023 17.2923 28.1646 16.6723C28.6956 16.1754 29.1175 15.5774 29.4046 14.9149C29.6917 14.2524 29.8378 13.5395 29.834 12.8196C29.832 11.7204 29.4703 10.6508 28.802 9.76823C28.1338 8.88569 27.1943 8.23684 26.122 7.91717L23.058 6.95401C22.5673 6.8447 22.1279 6.57782 21.8095 6.19569C21.491 5.81357 21.3118 5.33809 21.3002 4.84469C21.303 4.51555 21.3771 4.19076 21.5176 3.89186C21.6581 3.59295 21.8619 3.32678 22.1153 3.111C22.6815 2.62946 23.4085 2.36893 24.1579 2.379C24.6935 2.3596 25.2244 2.48388 25.6934 2.73846C26.1623 2.99304 26.5516 3.36827 26.8192 3.82374L26.9567 4.08379L29.2448 3.12064L29.1073 2.82206C28.6404 1.93955 27.927 1.20558 27.0506 0.705873C26.1742 0.206162 25.1709 -0.0386611 24.1579 6.42613e-08C22.7048 -0.0385859 21.2944 0.483637 20.2298 1.45437C19.7427 1.90479 19.3547 2.44815 19.0895 3.05106C18.8244 3.65396 18.6877 4.30368 18.688 4.96027C18.6903 5.9448 19.0109 6.90324 19.6039 7.69766C20.1968 8.49209 21.0314 9.08153 21.9876 9.38117" fill="black"/>
<path d="M45.0948 0.0963154V7.80159H36.9636V0.0963154H34.4005V18.1267H36.9636V10.4214H45.0948V18.1267H47.6579V0.0963154H45.0948Z" fill="black"/>
<path d="M53.0001 0.0963154V0.414158V18.1267H66.228V15.6321H55.5534V0.0963154H53.0001Z" fill="black"/>
<path d="M70.166 0.0963154V18.1267H70.49H83.4332V15.7573H72.7291V10.2962H81.5182V7.9268H72.7291V2.47532H83.4332V0.0963154H70.166Z" fill="black"/>
<path d="M96.9655 0.0963154L93.0374 6.01974L89.1191 0.0963154H86.0748L91.7706 8.72622V18.1267H94.3337V8.70696L100 0.0963154H96.9655Z" fill="black"/>
<path d="M5.4208 24.811C5.61482 24.605 5.85021 24.4406 6.11218 24.3281C6.37414 24.2157 6.65699 24.1576 6.94294 24.1576C7.2289 24.1576 7.51175 24.2157 7.77371 24.3281C8.03567 24.4406 8.27107 24.605 8.46509 24.811C8.87866 25.2403 9.10732 25.8096 9.10341 26.4002C9.11394 26.9759 8.89148 27.5322 8.48472 27.9474C8.07796 28.3626 7.52005 28.6028 6.93312 28.6155H5.89217L5.3226 27.9316C4.95738 27.4926 4.76619 26.9389 4.78423 26.3726C4.80228 25.8062 5.02834 25.2653 5.4208 24.8495V24.811ZM4.91014 31.3219L9.23107 36.6C8.38783 37.0336 7.45295 37.2677 6.50103 37.2839C5.61061 37.2887 4.74494 36.9966 4.04596 36.4556C3.69374 36.1835 3.41097 35.8347 3.22006 35.4368C3.02915 35.0389 2.93535 34.6029 2.94609 34.1633C2.93948 33.5438 3.12335 32.9368 3.4737 32.4214C3.82404 31.906 4.32462 31.506 4.91014 31.2738V31.3219ZM14.8581 32.4296V32.1117H12.2655V32.4296C12.2475 33.3572 11.9002 34.2496 11.2835 34.953L7.78749 30.8885C8.75005 30.6887 9.63327 30.2205 10.3309 29.5401C10.7524 29.13 11.0872 28.6424 11.3164 28.1053C11.5455 27.5682 11.6645 26.9921 11.6665 26.4098C11.677 25.1665 11.1848 23.9698 10.2976 23.0817C9.41051 22.1935 8.20071 21.6863 6.93312 21.6711C5.66985 21.6914 4.46608 22.2011 3.58473 23.089C2.70338 23.9769 2.21606 25.1707 2.22921 26.4098C2.21103 27.4823 2.58757 28.5252 3.2898 29.3475C2.41819 29.8273 1.69292 30.5267 1.18885 31.3732C0.684775 32.2198 0.420146 33.1829 0.422273 34.1633C0.409072 34.9393 0.569268 35.7087 0.891608 36.4176C1.21395 37.1264 1.69062 37.7574 2.28813 38.2663C3.46865 39.2416 4.96741 39.7681 6.51085 39.7496C8.04799 39.7207 9.55087 39.2991 10.8711 38.5264L11.8531 39.7303H15.1625L12.8744 36.9661C14.0959 35.7672 14.7993 34.1528 14.8385 32.4585" fill="black"/>
<path d="M28.0467 23.973C29.8771 23.962 31.6393 24.6533 32.9569 25.8994L33.1828 26.1209L34.9897 24.3583L34.754 24.1368C33.4303 22.8471 31.7469 21.9708 29.9161 21.6183C28.0852 21.2658 26.189 21.4529 24.4664 22.156C22.7438 22.8591 21.2721 24.0467 20.2368 25.5691C19.2015 27.0914 18.6491 28.8804 18.6491 30.7103C18.6491 32.5403 19.2015 34.3292 20.2368 35.8516C21.2721 37.374 22.7438 38.5616 24.4664 39.2647C26.189 39.9678 28.0852 40.1549 29.9161 39.8024C31.7469 39.4499 33.4303 38.5735 34.754 37.2839L34.9897 37.0624L34.7638 36.8312L33.2122 35.2613L32.9962 35.4732L32.8587 35.5695C32.1996 35.9845 31.514 36.3577 30.8062 36.6867C29.9657 37.1234 29.0437 37.3888 28.0958 37.4669C27.1846 37.4689 26.2819 37.2947 25.4394 36.9542C24.5969 36.6138 23.831 36.1137 23.1857 35.4828C22.5429 34.8562 22.0327 34.1111 21.6846 33.2904C21.3365 32.4697 21.1573 31.5896 21.1573 30.7007C21.1573 29.8118 21.3365 28.9317 21.6846 28.111C22.0327 27.2903 22.5429 26.5452 23.1857 25.9186C24.4897 24.6452 26.2557 23.9316 28.0958 23.9345" fill="black"/>
<path d="M48.1194 37.4958C47.2077 37.5009 46.3041 37.3282 45.4611 36.9876C44.6181 36.6469 43.8527 36.1452 43.2093 35.5117C42.5664 34.8851 42.0563 34.14 41.7082 33.3193C41.3601 32.4986 41.1808 31.6185 41.1808 30.7296C41.1808 29.8407 41.3601 28.9606 41.7082 28.1399C42.0563 27.3192 42.5664 26.5741 43.2093 25.9475C44.5127 24.6724 46.2785 23.9563 48.1194 23.9563C49.9604 23.9563 51.7262 24.6724 53.0296 25.9475C54.0113 26.8906 54.6822 28.1006 54.9559 29.4214C55.2295 30.7422 55.0933 32.1131 54.5648 33.3571C54.0363 34.6012 53.1397 35.6614 51.9908 36.4008C50.8419 37.1403 49.4934 37.525 48.1194 37.5054V37.4958ZM48.1194 21.4784C46.2563 21.4956 44.4401 22.0532 42.8996 23.081C41.3591 24.1088 40.1633 25.5609 39.4628 27.2542C38.7624 28.9475 38.5886 30.8063 38.9635 32.5962C39.3383 34.3862 40.245 36.0274 41.5693 37.3128C42.8936 38.5982 44.5761 39.4704 46.405 39.8195C48.2338 40.1686 50.1271 39.9789 51.8462 39.2744C53.5653 38.5699 55.0334 37.3821 56.0653 35.8606C57.0973 34.3391 57.647 32.5521 57.6451 30.7248C57.6412 29.503 57.3916 28.294 56.9104 27.1671C56.4293 26.0402 55.7261 25.0175 54.8411 24.1576C53.9562 23.2977 52.9069 22.6176 51.7535 22.1562C50.6 21.6948 49.3651 21.4612 48.1194 21.4688" fill="black"/>
<path d="M63.7631 24.7147C63.8323 24.7159 63.901 24.7037 63.9653 24.6786C64.0296 24.6535 64.0882 24.6161 64.1375 24.5686C64.1869 24.5211 64.2261 24.4644 64.2529 24.4018C64.2797 24.3392 64.2934 24.272 64.2934 24.2042C64.2909 24.067 64.2342 23.9362 64.1353 23.8392C64.0364 23.7421 63.903 23.6866 63.7631 23.6841H62.8498V24.705L63.7631 24.7147ZM64.8728 26.3039H64.3033L63.498 25.2155H62.8498V26.3039H62.2606V23.1929H63.7631C64.0384 23.1928 64.3028 23.2988 64.4993 23.4879C64.6958 23.677 64.8088 23.9342 64.8139 24.2042C64.8081 24.4198 64.7341 24.6283 64.6022 24.8009C64.4702 24.9735 64.2868 25.1015 64.0774 25.1674L64.8728 26.3039ZM63.4391 27.1033C63.9179 27.0995 64.385 26.9567 64.7813 26.693C65.1776 26.4293 65.4854 26.0565 65.666 25.6214C65.8466 25.1864 65.8918 24.7087 65.796 24.2485C65.7002 23.7883 65.4677 23.3662 65.1277 23.0354C64.7877 22.7046 64.3554 22.4799 63.8855 22.3897C63.4155 22.2995 62.9288 22.3477 62.4867 22.5283C62.0446 22.7089 61.6669 23.0138 61.4013 23.4046C61.1356 23.7954 60.9938 24.2546 60.9938 24.7243C60.9938 25.0383 61.0572 25.3493 61.1803 25.6392C61.3034 25.9291 61.4839 26.1922 61.7112 26.4134C61.9385 26.6345 62.2082 26.8094 62.5048 26.9278C62.8013 27.0462 63.1189 27.1058 63.4391 27.1033ZM63.4391 21.777C64.0325 21.7808 64.6116 21.9569 65.1032 22.2831C65.5948 22.6092 65.9769 23.0708 66.2013 23.6097C66.4257 24.1486 66.4824 24.7406 66.3643 25.311C66.2461 25.8814 65.9584 26.4048 65.5374 26.815C65.1163 27.2253 64.5809 27.5041 63.9985 27.6163C63.4161 27.7284 62.8129 27.669 62.265 27.4453C61.717 27.2217 61.2489 26.8439 60.9195 26.3597C60.5902 25.8754 60.4144 25.3064 60.4144 24.7243C60.4157 24.336 60.495 23.9517 60.6477 23.5935C60.8004 23.2352 61.0235 22.91 61.3044 22.6363C61.5852 22.3626 61.9183 22.1459 62.2846 21.9984C62.6509 21.851 63.0431 21.7758 63.4391 21.777Z" fill="black"/>
</g>
<defs>
<clipPath id="clip0_1_4">
<rect width="100" height="40" fill="white"/>
</clipPath>
</defs>
</svg>
