<svg width="49" height="70" viewBox="0 0 49 70" fill="none" xmlns="http://www.w3.org/2000/svg">
<path d="M24.47 70L4.45935 64.3777L0 13.7567H49L44.5359 64.3701L24.47 70Z" fill="#4353AD"/>
<path d="M40.7144 61.1472L44.5287 17.896H24.5V65.6967L40.7144 61.1472Z" fill="#485FB5"/>
<path d="M24.5004 52.7946L24.4735 52.8016L17.6419 50.9346L17.2051 45.9832H11.0472L11.9066 55.7314L24.4722 59.2618L24.5004 59.254V52.7946ZM9.11865 24.1044L9.67625 30.3127H24.5004V24.1044H9.11865ZM10.2234 36.6703L10.7732 42.8788H24.5004V36.6703H10.2234Z" fill="#EDEDED"/>
<path d="M29.3633 4.29153e-05H36.7931V2.73434H32.4706V3.28146H36.7931V9.57031H29.3633V6.69902H33.6862V6.15233H29.3636V4.29153e-05H29.3633ZM20.4477 4.29153e-05H27.8773V2.73434H23.5548V3.28146H27.8773V9.57031H20.448V6.69902H24.7706V6.15233H20.4476V4.29153e-05H20.4477ZM11.5322 4.29153e-05H18.9617V3.14447H14.6392V6.28932H18.962V9.43375H11.5322V4.29153e-05Z" fill="#100F0D"/>
<path d="M38.7377 36.6704L39.845 24.1046H24.4787V30.3129H33.1225L32.5644 36.6704H24.4787V42.879H32.0325L31.32 50.9311L24.4785 52.7998V59.2589L37.054 55.7315L37.1461 54.6828L38.588 38.3376L38.7377 36.6704Z" fill="white"/>
</svg>
