<svg width="47" height="70" viewBox="0 0 47 70" fill="none" xmlns="http://www.w3.org/2000/svg">
<g clip-path="url(#clip0_188_22)">
<path d="M11.75 70C18.236 70 23.5 64.7733 23.5 58.3333V46.6666H11.75C5.264 46.6666 0 51.8933 0 58.3333C0 64.7733 5.264 70 11.75 70Z" fill="#0ACF83"/>
<path d="M0 34.9999C0 28.5599 5.264 23.3333 11.75 23.3333H23.5V46.6666H11.75C5.264 46.6666 0 41.4399 0 34.9999Z" fill="#A259FF"/>
<path d="M0 11.6667C0 5.22667 5.264 0 11.75 0H23.5V23.3333H11.75C5.264 23.3333 0 18.1067 0 11.6667Z" fill="#F24E1E"/>
<path d="M23.5 0H35.25C41.736 0 47 5.22667 47 11.6667C47 18.1067 41.736 23.3333 35.25 23.3333H23.5V0Z" fill="#FF7262"/>
<path d="M47 34.9999C47 41.4399 41.736 46.6666 35.25 46.6666C28.764 46.6666 23.5 41.4399 23.5 34.9999C23.5 28.5599 28.764 23.3333 35.25 23.3333C41.736 23.3333 47 28.5599 47 34.9999Z" fill="#1ABCFE"/>
</g>
<defs>
<clipPath id="clip0_188_22">
<rect width="47" height="70" fill="white"/>
</clipPath>
</defs>
</svg>
