<svg width="49" height="70" viewBox="0 0 49 70" fill="none" xmlns="http://www.w3.org/2000/svg">
<path d="M4.45923 64.3777L0 13.7566H49L44.5359 64.3697L24.4699 70L4.45923 64.3777Z" fill="#E53D20"/>
<path d="M24.5 65.6965L40.7143 61.147L44.5291 17.8957H24.5V65.6965Z" fill="#F15123"/>
<path d="M24.5006 36.6705H16.3834L15.8227 30.3129H24.5006V24.1044H24.4794H9.11865L9.26553 25.77L10.7732 42.8788H24.5006V36.6705Z" fill="#EDEDED"/>
<path d="M24.4998 52.7941L24.4729 52.8015L17.6411 50.9343L17.2042 45.9829H13.8846H11.0464L11.9059 55.7311L24.4715 59.2615L24.4998 59.2536V52.7941Z" fill="#EDEDED"/>
<path d="M4.55908 9.4349e-05H7.67651V3.11727H10.5281V9.4349e-05H13.6457V9.4397H10.5282V6.27883H7.67665V9.4397H4.55931V9.4349e-05H4.55908Z" fill="#100F0D"/>
<path d="M17.7449 3.13043H15.0005V9.4349e-05H23.6081V3.13043H20.8624V9.4397H17.7451V3.13043H17.7449Z" fill="#100F0D"/>
<path d="M24.9741 9.4349e-05H28.2247L30.2242 3.31686L32.2217 9.4349e-05H35.4735V9.4397H32.369V4.7609L30.2242 8.11724H30.1707L28.0244 4.7609V9.4397H24.9741V9.4349e-05Z" fill="#100F0D"/>
<path d="M37.0254 9.4349e-05H40.1437V6.31955H44.5276V9.4397H37.0254V9.4349e-05Z" fill="#100F0D"/>
<path d="M24.4795 36.6703V42.8786H32.0331L31.3212 50.9305L24.4795 52.7995V59.2585L37.0551 55.7311L37.1473 54.6823L38.5889 38.3374L38.7385 36.6703H37.0855H24.4795Z" fill="white"/>
<path d="M24.4795 24.1042V30.3127H39.277H39.2967L39.4197 28.9172L39.6992 25.7698L39.8459 24.1042H24.4795" fill="white"/>
</svg>
