<svg width="161" height="70" viewBox="0 0 161 70" fill="none" xmlns="http://www.w3.org/2000/svg">
<path fill-rule="evenodd" clip-rule="evenodd" d="M154.24 19.7345L161 19.7721C161 19.7721 148.432 36.9942 147.406 38.3979C147.072 38.8524 146.566 39.3426 146.309 39.9502C145.66 41.4777 144.994 44.8284 144.994 44.8284L138.809 44.8594C138.809 44.8594 139.771 41.3669 139.731 39.5066C139.696 37.8814 138.876 36.2583 138.416 34.6284C137.951 32.9787 137.319 29.7501 137.319 29.7501H143.678L144.555 33.298L154.24 19.7345Z" fill="#1A1918"/>
<path fill-rule="evenodd" clip-rule="evenodd" d="M141.44 23.3666C142.687 24.1272 143.453 28.3224 143.453 28.3224C143.453 28.3224 136.925 28.4198 133.373 28.4198H130.303L126.575 44.8284H120.875C120.875 44.8284 124.422 26.9964 125.26 23.7635C125.532 22.717 127.119 22.8964 129.801 22.8964H134.083C136.848 22.8964 140.08 22.5395 141.44 23.3666Z" fill="#1A1918"/>
<path fill-rule="evenodd" clip-rule="evenodd" d="M114.899 31.3582C114.899 31.3582 115.077 30.3049 114.296 29.0853C113.63 28.0454 113.014 27.8038 111.26 27.7484C106.306 27.5909 106.403 31.3028 106.403 31.3028L114.899 31.3582ZM120.271 27.1076C120.997 29.7552 119.614 35.9769 119.614 35.9769C119.614 35.9769 112.389 35.8549 108.431 35.9769C107.201 36.0148 105.727 35.8417 105.361 36.4205C104.846 37.2319 105.549 38.4805 106.146 39.008C106.833 39.6156 108.17 39.6844 108.65 39.7464C111.862 40.159 118.585 39.8528 118.585 39.8528L117.421 45.0679C117.421 45.0679 107.92 45.5493 103.168 44.4027C102.23 44.1767 101.351 43.72 100.757 43.0723C100.594 42.8952 100.454 42.6535 100.3 42.445C100.178 42.2785 99.8205 41.731 99.6601 41.2984C98.5749 38.3738 99.7873 32.7706 100.976 29.7683C101.114 29.4202 101.287 28.9792 101.469 28.6042C101.697 28.1365 101.89 27.6087 102.072 27.3292C102.195 27.1364 102.346 27.0121 102.474 26.8302C102.62 26.6152 102.791 26.4067 102.949 26.2208C103.388 25.7062 103.885 25.3424 104.484 24.8904C106.464 23.3913 110.047 22.2272 114.351 22.6729C115.971 22.8413 118.419 23.4267 119.614 25.112C119.934 25.5622 120.091 26.4556 120.271 27.1076Z" fill="#1A1918"/>
<path fill-rule="evenodd" clip-rule="evenodd" d="M94.1239 22.8764L99.6517 22.8433C99.6517 22.8433 96.5711 37.6219 95.0011 44.8285H88.6422C84.1978 44.8285 80.24 45.385 78.556 42.1674C76.9226 39.0434 78.4814 33.9057 79.2138 30.4154C79.7314 27.9453 80.8213 22.8965 80.8213 22.8965L86.5484 22.8433C86.5484 22.8433 84.9302 30.7037 84.2569 34.6285C84.0158 36.0343 83.5183 37.3581 84.0377 38.3979C84.5311 39.3871 85.2217 39.4579 87.3266 39.5067C87.9934 39.5223 90.1772 39.5067 90.1772 39.5067L94.1239 22.8764Z" fill="#1A1918"/>
<path fill-rule="evenodd" clip-rule="evenodd" d="M68.2505 33.5197C68.8294 31.44 69.6735 29.1849 69.5661 27.3111C69.45 25.3068 67.7881 23.4818 66.7158 23.0984C63.486 21.9452 60.4624 23.5573 59.2608 24.872C57.706 26.5752 57.1797 28.5642 56.6294 31.3025C56.2195 33.3357 55.884 35.4821 56.6294 37.0676C57.9493 39.8704 62.0649 39.2585 66.4963 39.2851C67.1541 37.5024 67.698 35.4999 68.2505 33.5197ZM75.925 25.3156C76.5565 29.9587 74.1337 35.0833 72.4649 39.5399C74.1665 39.6951 75.6576 39.5158 75.765 39.6441C75.8767 39.8106 74.6246 44.9637 74.1882 44.9769C72.8376 45.0125 68.3626 45.0501 66.4963 45.0501C60.4073 45.0501 54.7108 45.4514 51.8058 42.3894C50.6261 41.1454 49.8104 39.0121 49.613 37.5111C49.2839 35.0053 49.6962 32.2469 50.2707 29.9722C50.7905 27.9187 51.4569 25.9807 52.4635 24.2068C55.0222 19.6901 59.4734 16.3376 66.935 17.1114C68.3821 17.2623 70.4607 17.9031 71.7589 18.6634C71.8486 18.7169 72.1625 18.9695 72.2346 19.014C73.9888 20.1428 75.5873 22.8367 75.925 25.3156Z" fill="#1A1918"/>
<path fill-rule="evenodd" clip-rule="evenodd" d="M48.9831 22.9032C48.6147 24.5995 48.2464 26.5221 47.8582 28.1984H41.7188C42.1945 26.3402 42.5585 24.4931 43.0343 22.8766C44.999 22.8766 46.8256 22.9032 48.9831 22.9032Z" fill="#1A1918"/>
<path fill-rule="evenodd" clip-rule="evenodd" d="M41.4998 29.7504H47.4198C46.646 34.0833 45.1134 41.0723 43.9118 45.9371C43.1596 48.9816 42.6575 51.2034 40.6226 52.8108C40.4406 52.9551 40.3356 52.8866 40.1843 53.0328C39.8091 53.3943 38.0747 53.8135 37.1145 53.9196C35.5532 54.0905 33.7882 53.9418 31.8696 53.9021C32.3717 52.0461 32.9397 49.8177 33.387 48.1545C38.0639 48.7268 38.1824 44.2564 39.0879 39.9504C39.6119 37.4624 41.1996 30.7483 41.4998 29.7504Z" fill="#1A1918"/>
<path fill-rule="evenodd" clip-rule="evenodd" d="M27.6859 41.0592L27.5589 41.3916C25.3968 45.6488 21.5662 48.261 16.1022 48.3762C13.5478 48.4294 11.1139 47.7667 9.52406 47.0458C6.09278 45.487 3.20691 42.5958 1.63072 39.5069C-0.630182 35.0788 -1.03785 28.919 3.66318 24.3181C3.73561 24.3181 3.093 25.3157 3.16543 25.3157L3.03604 25.7415C-0.351594 36.4667 10.0853 45.6579 20.2308 44.6067C22.6691 44.3541 25.7785 43.0037 27.6859 41.0592Z" fill="#21609B"/>
<path fill-rule="evenodd" clip-rule="evenodd" d="M21.5462 36.6243C24.0987 36.6421 26.7648 35.4357 28.3435 33.7419C26.9623 37.2876 22.963 39.5667 17.5996 38.8418C13.109 38.2342 8.83115 33.6643 8.39037 29.0853C8.06813 25.7528 9.21684 23.7638 11.1094 21.3513C10.4516 22.6131 10.2058 23.5863 10.1445 24.2071C9.42548 31.4158 15.8389 36.5867 21.5462 36.6243Z" fill="#21609B"/>
<path fill-rule="evenodd" clip-rule="evenodd" d="M28.0874 27.6706C27.6906 28.5909 25.4058 30.3291 24.397 30.5464C20.4021 31.4069 17.8434 29.4911 16.5034 27.3112C16.304 26.9853 15.9357 26.0963 15.8697 25.87C15.35 24.0829 15.589 21.3799 17.1395 19.9807C16.6724 21.3111 16.6043 22.8565 16.8501 23.861C16.9989 24.4686 17.4527 25.5288 17.9068 26.1959C18.7333 27.4111 19.2574 27.7062 20.3188 28.3514C20.7967 28.6419 21.3096 28.8748 21.5313 28.939C22.5376 29.2382 24.6623 30.0277 28.0874 27.6706Z" fill="#21609B"/>
</svg>
