<svg width="70" height="70" viewBox="0 0 70 70" fill="none" xmlns="http://www.w3.org/2000/svg">
<path d="M0 5C0 2.23858 2.23858 0 5 0H65C67.7614 0 70 2.23858 70 5V65C70 67.7614 67.7614 70 65 70H5C2.23858 70 0 67.7614 0 65V5Z" fill="#F7DF1E"/>
<path d="M18.4054 58.4971L19.3513 57.9246C21.7652 56.4638 24.6075 58.2229 27.4037 58.5999C27.5891 58.6249 27.7845 58.6378 27.9908 58.6378C30.1524 58.6378 31.5152 57.7923 31.5152 54.5034V35.4258C31.5152 33.6093 32.9877 32.1367 34.8043 32.1367V32.1367C36.6208 32.1367 38.0934 33.6093 38.0934 35.4258V54.5964C38.0934 61.4097 34.0996 64.5109 28.2728 64.5109C23.0105 64.5109 19.9558 61.7855 18.4053 58.4965" fill="black"/>
<path d="M41.667 57.7921L42.8014 57.1353C45.1496 55.7756 48.0004 56.9027 50.4575 58.0542C51.3168 58.4568 52.3172 58.6849 53.5078 58.6849C56.2334 58.6849 57.9716 57.3222 57.9716 55.4426C57.9716 53.1872 56.1861 52.3883 53.1788 51.0731L51.5347 50.3677C46.7885 48.3476 43.6402 45.8103 43.6402 40.4535C43.6402 35.5197 47.3992 31.7605 53.273 31.7605C56.4666 31.7605 58.9751 32.6101 60.945 34.7067C62.046 35.8785 61.5641 37.7036 60.2112 38.5725V38.5725C58.7426 39.5155 56.9037 38.7856 55.3644 37.963C54.758 37.639 54.0755 37.4934 53.2731 37.4934C51.3465 37.4934 50.1248 38.7151 50.1248 40.3124C50.1248 42.2859 51.3465 43.0849 54.1655 44.3067L55.81 45.0115C61.4017 47.408 64.55 49.8512 64.55 55.3486C64.55 61.2695 59.8982 64.5114 53.6489 64.5114C47.5404 64.5114 43.5933 61.5983 41.6671 57.7921" fill="black"/>
</svg>
