<svg width="114" height="70" viewBox="0 0 114 70" fill="none" xmlns="http://www.w3.org/2000/svg">
<path d="M56.3813 70C55.9948 70 55.634 69.8967 55.299 69.7158L51.8718 67.6745C51.3564 67.3902 51.6141 67.2868 51.7687 67.2352C52.4645 67.0026 52.5933 66.9509 53.3148 66.5375C53.3921 66.4858 53.4952 66.5117 53.5725 66.5633L56.2009 68.1396C56.304 68.1912 56.4328 68.1912 56.5101 68.1396L66.7918 62.1706C66.8949 62.1189 66.9464 62.0155 66.9464 61.8863V49.9742C66.9464 49.845 66.8949 49.7416 66.7918 49.69L56.5101 43.7468C56.4071 43.6951 56.2782 43.6951 56.2009 43.7468L45.9192 49.69C45.8162 49.7416 45.7646 49.8708 45.7646 49.9742V61.8863C45.7646 61.9897 45.8162 62.1189 45.9192 62.1706L48.728 63.7985C50.2484 64.5737 51.2018 63.6693 51.2018 62.7649V51.0078C51.2018 50.8527 51.3306 50.6977 51.511 50.6977H52.8252C52.9798 50.6977 53.1344 50.8269 53.1344 51.0078V62.7649C53.1344 64.8062 52.0264 65.9949 50.0938 65.9949C49.5011 65.9949 49.0372 65.9949 47.723 65.3489L45.0173 63.7985C44.3474 63.4109 43.9351 62.6874 43.9351 61.9122V50C43.9351 49.2248 44.3474 48.5013 45.0173 48.1137L55.299 42.1447C55.9432 41.783 56.8194 41.783 57.4636 42.1447L67.7452 48.1137C68.4152 48.5013 68.8275 49.2248 68.8275 50V61.9122C68.8275 62.6874 68.4152 63.4109 67.7452 63.7985L57.4636 69.7675C57.1286 69.9225 56.742 70 56.3813 70ZM59.5508 61.8088C55.0413 61.8088 54.1137 59.7416 54.1137 57.9845C54.1137 57.8295 54.2425 57.6744 54.4229 57.6744H55.7628C55.7812 57.6744 55.7992 57.6759 55.8167 57.6787C56.0626 57.7186 56.0585 58.058 56.1161 58.3004C56.3827 59.4227 57.1018 59.9742 59.5766 59.9742C61.7412 59.9742 62.6688 59.4832 62.6688 58.3204C62.6688 57.6486 62.4111 57.1577 59.0355 56.8217C56.2267 56.5375 54.4744 55.9173 54.4744 53.6693C54.4744 51.5763 56.2267 50.3359 59.1643 50.3359C62.4627 50.3359 64.0861 51.4729 64.2922 53.9535C64.2922 53.9577 64.2922 53.9618 64.292 53.966C64.2864 54.123 64.1659 54.2894 64.0088 54.2894V54.2894H62.6688C62.54 54.2894 62.4111 54.1861 62.3854 54.0569C62.0761 52.6357 61.2773 52.1706 59.1643 52.1706C56.7936 52.1706 56.5101 52.9974 56.5101 53.6176C56.5101 54.367 56.8451 54.5995 60.0404 55.013C63.21 55.4264 64.7045 56.0207 64.7045 58.2429C64.6788 60.5168 62.8234 61.8088 59.5508 61.8088Z" fill="#539E43"/>
<path d="M24.4802 23.4108C24.4802 22.9457 24.2225 22.5064 23.8102 22.2739L12.8843 15.969C12.7039 15.8656 12.4978 15.8139 12.2916 15.7881H12.1885C11.9824 15.7881 11.7762 15.8656 11.5959 15.969L0.669983 22.2739C0.257686 22.5064 0 22.9457 0 23.4108L0.0257686 40.3617C0.0257686 40.5943 0.154612 40.8269 0.36076 40.9302C0.566909 41.0594 0.824595 41.0594 1.00498 40.9302L7.49866 37.2093C7.91096 36.9767 8.16864 36.5374 8.16864 36.0723V28.1395C8.16864 27.6744 8.42633 27.2351 8.83863 27.0026L11.5959 25.4005C11.802 25.2713 12.0339 25.2196 12.2658 25.2196C12.4978 25.2196 12.7297 25.2713 12.9101 25.4005L15.6673 27.0026C16.0796 27.2351 16.3373 27.6744 16.3373 28.1395V36.0723C16.3373 36.5374 16.595 36.9767 17.0073 37.2093L23.501 40.9302C23.7071 41.0594 23.9648 41.0594 24.1709 40.9302C24.3771 40.8269 24.5059 40.5943 24.5059 40.3617L24.4802 23.4108Z" fill="#333333"/>
<path d="M76.9967 0.0775194C76.7905 -0.0258398 76.5328 -0.0258398 76.3524 0.0775194C76.1463 0.206718 76.0175 0.413437 76.0175 0.645995V17.4419C76.0175 17.5969 75.9401 17.7519 75.7855 17.8553C75.6309 17.9328 75.4763 17.9328 75.3217 17.8553L72.5902 16.2791C72.1779 16.0465 71.6883 16.0465 71.276 16.2791L60.3502 22.6098C59.9379 22.8424 59.6802 23.2817 59.6802 23.7468V36.3824C59.6802 36.8475 59.9379 37.2868 60.3502 37.5194L71.276 43.8501C71.6883 44.0827 72.1779 44.0827 72.5902 43.8501L83.5161 37.5194C83.9284 37.2868 84.1861 36.8475 84.1861 36.3824V4.88372C84.1861 4.39277 83.9284 3.95349 83.5161 3.72093L76.9967 0.0775194ZM75.9917 32.2222C75.9917 32.3514 75.9402 32.4548 75.8371 32.5065L72.1006 34.677C71.9976 34.7287 71.8687 34.7287 71.7656 34.677L68.0292 32.5065C67.9261 32.4548 67.8746 32.3256 67.8746 32.2222V27.8811C67.8746 27.7519 67.9261 27.6486 68.0292 27.5969L71.7656 25.4264C71.8687 25.3747 71.9976 25.3747 72.1006 25.4264L75.8371 27.5969C75.9402 27.6486 75.9917 27.7778 75.9917 27.8811V32.2222Z" fill="#333333"/>
<path d="M113.356 27.7776C113.768 27.5451 114 27.1058 114 26.6407V23.5657C114 23.1006 113.742 22.6614 113.356 22.4288L102.507 16.1239C102.095 15.8913 101.605 15.8913 101.193 16.1239L90.2672 22.4546C89.8549 22.6872 89.5972 23.1265 89.5972 23.5916V36.2272C89.5972 36.6924 89.8549 37.1316 90.2672 37.3642L101.116 43.5657C101.528 43.7983 102.018 43.7983 102.404 43.5657L108.975 39.8965C109.181 39.7931 109.31 39.5606 109.31 39.328C109.31 39.0955 109.181 38.8629 108.975 38.7595L97.9977 32.4288C97.7916 32.2996 97.6627 32.0929 97.6627 31.8603V27.9068C97.6627 27.6743 97.7916 27.4417 97.9977 27.3384L101.425 25.3745C101.631 25.2453 101.889 25.2453 102.095 25.3745L105.522 27.3384C105.728 27.4676 105.857 27.6743 105.857 27.9068V31.0076C105.857 31.2402 105.986 31.4727 106.192 31.5761C106.398 31.7053 106.656 31.7053 106.862 31.5761L113.356 27.7776Z" fill="#333333"/>
<path d="M101.682 27.1833C101.76 27.1316 101.863 27.1316 101.94 27.1833L104.027 28.3978C104.105 28.4494 104.156 28.527 104.156 28.6303V31.0593C104.156 31.1626 104.105 31.2401 104.027 31.2918L101.94 32.5063C101.863 32.558 101.76 32.558 101.682 32.5063L99.5952 31.2918C99.5178 31.2401 99.4663 31.1626 99.4663 31.0593V28.6303C99.4663 28.527 99.5178 28.4494 99.5952 28.3978L101.682 27.1833Z" fill="#539E43"/>
<mask id="mask0_2_1671" style="mask-type:alpha" maskUnits="userSpaceOnUse" x="29" y="16" width="26" height="28">
<path d="M42.7503 16.1756C42.3381 15.9431 41.8484 15.9431 41.4362 16.1756L30.5876 22.4547C30.1753 22.6873 29.9434 23.1265 29.9434 23.5917V36.1756C29.9434 36.6408 30.201 37.08 30.5876 37.3126L41.4362 43.5917C41.8484 43.8242 42.3381 43.8242 42.7503 43.5917L53.5989 37.3126C54.0112 37.08 54.2431 36.6408 54.2431 36.1756V23.5917C54.2431 23.1265 53.9855 22.6873 53.5989 22.4547L42.7503 16.1756Z" fill="white"/>
</mask>
<g mask="url(#mask0_2_1671)">
<path d="M42.7503 16.1756C42.3381 15.9431 41.8484 15.9431 41.4362 16.1756L30.5876 22.4547C30.1753 22.6873 29.9434 23.1265 29.9434 23.5917V36.1756C29.9434 36.6408 30.201 37.08 30.5876 37.3126L41.4362 43.5917C41.8484 43.8242 42.3381 43.8242 42.7503 43.5917L53.5989 37.3126C54.0112 37.08 54.2431 36.6408 54.2431 36.1756V23.5917C54.2431 23.1265 53.9855 22.6873 53.5989 22.4547L42.7503 16.1756Z" fill="url(#paint0_linear_2_1671)"/>
<path d="M53.6242 22.4539L42.7241 16.1749V16.1749C42.5337 16.0794 42.3153 16.1724 42.2082 16.3565L30.4154 36.6143C30.2704 36.8634 30.2886 37.189 30.5356 37.3376V37.3376L41.4357 43.6167V43.6167C42.0129 43.9544 42.6198 43.4173 42.9399 42.8301L53.7234 23.0503C53.8357 22.8444 53.8117 22.5949 53.6242 22.4539V22.4539Z" fill="url(#paint1_linear_2_1671)"/>
<path fill-rule="evenodd" clip-rule="evenodd" d="M53.6498 37.3127V37.3127C54.2396 36.9677 54.0979 36.1502 53.7532 35.5602L42.8228 16.8516C42.5152 16.3251 41.9237 15.8478 41.4097 16.1757V16.1757L34.8159 19.9856C32.4644 21.3442 31.6274 24.3314 32.9305 26.7141L42.0128 43.3205C42.1609 43.5912 42.4738 43.7559 42.7497 43.6176V43.6176L53.6498 37.3127Z" fill="url(#paint2_linear_2_1671)"/>
<path fill-rule="evenodd" clip-rule="evenodd" d="M53.6496 37.3126L42.7752 43.5916C42.6957 43.6315 42.6161 43.6645 42.5331 43.6908C42.4152 43.7279 42.3469 43.8618 42.4049 43.9709V43.9709C42.4524 44.0601 42.5644 44.0921 42.6518 44.0413L54.4609 37.1843C54.517 37.1517 54.5515 37.0918 54.5515 37.0269V37.0269C54.5515 36.994 54.5424 36.9615 54.5255 36.9332V36.9332C54.4315 36.7762 54.1436 36.8142 54.0365 36.9626C53.9342 37.1042 53.8012 37.2239 53.6496 37.3126Z" fill="url(#paint3_linear_2_1671)"/>
<path fill-rule="evenodd" clip-rule="evenodd" d="M53.6496 37.3126L42.7752 43.5916C42.6957 43.6315 42.6161 43.6645 42.5331 43.6908C42.4152 43.7279 42.3469 43.8618 42.4049 43.9709V43.9709C42.4524 44.0601 42.5644 44.0921 42.6518 44.0413L54.4609 37.1843C54.517 37.1517 54.5515 37.0918 54.5515 37.0269V37.0269C54.5515 36.994 54.5424 36.9615 54.5255 36.9332V36.9332C54.4315 36.7762 54.1436 36.8142 54.0365 36.9626C53.9342 37.1042 53.8012 37.2239 53.6496 37.3126Z" fill="url(#paint4_linear_2_1671)"/>
</g>
<defs>
<linearGradient id="paint0_linear_2_1671" x1="46.513" y1="20.8564" x2="34.5747" y2="39.5626" gradientUnits="userSpaceOnUse">
<stop stop-color="#41873F"/>
<stop offset="0.3288" stop-color="#418B3D"/>
<stop offset="0.6352" stop-color="#419637"/>
<stop offset="0.9319" stop-color="#3FA92D"/>
<stop offset="1" stop-color="#3FAE2A"/>
</linearGradient>
<linearGradient id="paint1_linear_2_1671" x1="40.4456" y1="31.3566" x2="70.2634" y2="15.2013" gradientUnits="userSpaceOnUse">
<stop offset="0.1376" stop-color="#41873F"/>
<stop offset="0.4032" stop-color="#54A044"/>
<stop offset="0.7136" stop-color="#66B848"/>
<stop offset="0.9081" stop-color="#6CC04A"/>
</linearGradient>
<linearGradient id="paint2_linear_2_1671" x1="29.5465" y1="29.8841" x2="54.6494" y2="29.8841" gradientUnits="userSpaceOnUse">
<stop offset="0.0919165" stop-color="#6CC04A"/>
<stop offset="0.2864" stop-color="#66B848"/>
<stop offset="0.5968" stop-color="#54A044"/>
<stop offset="0.8624" stop-color="#41873F"/>
</linearGradient>
<linearGradient id="paint3_linear_2_1671" x1="29.5462" y1="40.3182" x2="54.6492" y2="40.3182" gradientUnits="userSpaceOnUse">
<stop offset="0.0919165" stop-color="#6CC04A"/>
<stop offset="0.2864" stop-color="#66B848"/>
<stop offset="0.5968" stop-color="#54A044"/>
<stop offset="0.8624" stop-color="#41873F"/>
</linearGradient>
<linearGradient id="paint4_linear_2_1671" x1="58.3064" y1="20.2615" x2="51.913" y2="53.6711" gradientUnits="userSpaceOnUse">
<stop stop-color="#41873F"/>
<stop offset="0.3288" stop-color="#418B3D"/>
<stop offset="0.6352" stop-color="#419637"/>
<stop offset="0.9319" stop-color="#3FA92D"/>
<stop offset="1" stop-color="#3FAE2A"/>
</linearGradient>
</defs>
</svg>
