<svg width="75" height="70" viewBox="0 0 75 70" fill="none" xmlns="http://www.w3.org/2000/svg">
<path d="M61.665 22.6883C60.887 22.4074 60.0808 22.1416 59.2507 21.8902C59.3872 21.3061 59.5124 20.7295 59.6237 20.1628C61.4513 10.8564 60.2564 3.35921 56.176 0.890797C52.2634 -1.47608 45.8646 0.991768 39.4022 6.89153C38.7808 7.45884 38.1576 8.05949 37.5347 8.68899C37.1197 8.2725 36.7053 7.87001 36.292 7.48503C29.5192 1.17663 22.7305 -1.48182 18.6541 0.99373C14.7452 3.36747 13.5877 10.4156 15.2328 19.2353C15.3916 20.0871 15.5773 20.9571 15.7873 21.8416C14.8265 22.1277 13.899 22.4327 13.0115 22.7572C5.07109 25.6613 0 30.2127 0 34.9337C0 39.8096 5.44382 44.7002 13.7144 47.6656C14.367 47.8997 15.0443 48.1209 15.7422 48.331C15.5157 49.2876 15.3186 50.2251 15.1532 51.1394C13.5846 59.806 14.8096 66.6876 18.708 69.0464C22.7347 71.4823 29.4927 68.9785 36.0733 62.9443C36.5934 62.4673 37.1154 61.9614 37.6383 61.4312C38.3161 62.1159 38.9928 62.7639 39.6659 63.3717C46.0399 69.1257 52.3353 71.4491 56.2302 69.0838C60.2529 66.6409 61.5603 59.2484 59.8629 50.2542C59.7333 49.5673 59.5825 48.8655 59.4131 48.1513C59.8876 48.0041 60.3536 47.8522 60.8079 47.6942C69.4059 44.7058 75 39.8747 75 34.9337C75 30.1956 69.7654 25.6135 61.665 22.6883Z" fill="#53C1DE"/>
<path d="M59.9329 44.3103C59.5203 44.4498 59.097 44.5847 58.6657 44.7154C57.7109 41.6275 56.4222 38.344 54.8452 34.9516C56.3501 31.64 57.5889 28.3985 58.517 25.3306C59.2888 25.5587 60.0379 25.7994 60.7597 26.0533C67.7413 28.5085 72 32.1385 72 34.9356C72 37.9149 67.4007 41.7826 59.9329 44.3103ZM56.8342 50.5827C57.5892 54.4786 57.697 58.0009 57.1969 60.7545C56.7476 63.2287 55.8439 64.8784 54.7266 65.539C52.3489 66.9449 47.2644 65.1175 41.7808 60.2971C41.1522 59.7445 40.519 59.1545 39.8838 58.53C42.0096 56.1549 44.1343 53.3938 46.2079 50.3274C49.8551 49.9967 53.3009 49.4562 56.4258 48.7183C56.5797 49.3525 56.7164 49.9745 56.8342 50.5827ZM25.4983 65.2961C23.1753 66.1341 21.3252 66.1582 20.2068 65.4994C17.827 64.0972 16.8377 58.6848 18.1872 51.4244C18.3417 50.5929 18.5257 49.7388 18.7378 48.8658C21.8284 49.5639 25.2489 50.0663 28.9049 50.3691C30.9925 53.3697 33.1785 56.1278 35.3815 58.5428C34.9002 59.0174 34.4207 59.4693 33.944 59.8951C31.0168 62.5089 28.0835 64.3634 25.4983 65.2961ZM14.6154 44.2921C10.9366 43.0076 7.89846 41.3382 5.81598 39.5166C3.94475 37.8795 3 36.2543 3 34.9356C3 32.1292 7.09579 28.5496 13.9269 26.1167C14.7557 25.8214 15.6234 25.5432 16.5238 25.2819C17.4679 28.419 18.7063 31.699 20.2009 35.0157C18.687 38.3816 17.431 41.7138 16.4776 44.8877C15.8357 44.6992 15.2138 44.5009 14.6154 44.2921ZM18.2634 18.9253C16.8456 11.5231 17.7872 5.9392 20.1568 4.538C22.6809 3.0453 28.2622 5.17357 34.1448 10.5094C34.5208 10.8504 34.8983 11.2073 35.2769 11.5766C33.0848 13.9811 30.9188 16.7185 28.8497 19.7014C25.3015 20.0374 21.9049 20.577 18.7821 21.2997C18.5857 20.4929 18.4118 19.7003 18.2634 18.9253ZM50.8074 27.1343C50.0609 25.8171 49.2945 24.531 48.5131 23.28C50.9203 23.5908 53.2267 24.0035 55.3926 24.5085C54.7423 26.6373 53.9319 28.8631 52.9778 31.1449C52.2935 29.8176 51.5696 28.4794 50.8074 27.1343ZM37.5361 13.9296C39.0227 15.5749 40.5114 17.4118 41.9758 19.4048C40.5002 19.3336 39.0063 19.2966 37.5001 19.2966C36.0081 19.2966 34.5252 19.3328 33.0587 19.4027C34.5245 17.4282 36.0262 15.5938 37.5361 13.9296ZM24.1797 27.1571C23.434 28.478 22.7236 29.809 22.05 31.1424C21.1114 28.8686 20.3084 26.6326 19.6526 24.4736C21.8051 23.9815 24.1006 23.5792 26.4925 23.2742C25.7002 24.5367 24.9274 25.8323 24.1797 27.1568V27.1571ZM26.5614 46.8318C24.0901 46.5501 21.7602 46.1685 19.6081 45.69C20.2745 43.4924 21.0951 41.2087 22.0536 38.8859C22.7289 40.2184 23.4422 41.5499 24.1925 42.8737H24.1926C24.9569 44.2224 25.7486 45.5435 26.5614 46.8318ZM37.6252 56.1736C36.0976 54.4899 34.574 52.6275 33.0859 50.6242C34.5304 50.6821 36.0032 50.7118 37.5001 50.7118C39.0379 50.7118 40.558 50.6764 42.0543 50.6083C40.5852 52.6477 39.1018 54.513 37.6252 56.1736ZM53.0086 38.7675C54.017 41.1154 54.8671 43.3872 55.542 45.5473C53.3545 46.0571 50.9927 46.4677 48.5043 46.7728C49.2875 45.5049 50.0606 44.1967 50.8203 42.8511C51.5889 41.4897 52.3186 40.1262 53.0086 38.7675ZM48.0285 41.2063C46.8491 43.2952 45.6383 45.2893 44.4092 47.1716C42.1704 47.3351 39.8574 47.4193 37.5001 47.4193C35.1522 47.4193 32.8684 47.3448 30.6693 47.199C29.3905 45.292 28.1534 43.292 26.9816 41.2242H26.9819C25.8131 39.1621 24.7374 37.0825 23.7627 35.0146C24.7372 32.9419 25.81 30.86 26.9721 28.8015L26.9718 28.8019C28.1369 26.738 29.3631 24.7477 30.6301 22.8526C32.8738 22.6794 35.1747 22.589 37.4999 22.589H37.5001C39.8358 22.589 42.1396 22.6801 44.3827 22.8548C45.6303 24.736 46.8482 26.7199 48.0179 28.7841C49.2009 30.8715 50.2876 32.9395 51.2703 34.9678C50.2905 37.0309 49.2062 39.1198 48.0285 41.2063ZM54.6772 4.44005C57.2036 5.92836 58.1861 11.9307 56.5988 19.8017C56.4975 20.3039 56.3835 20.8155 56.2597 21.3339C53.1296 20.5961 49.7306 20.0471 46.172 19.706C44.0989 16.6903 41.9507 13.9487 39.7943 11.5751C40.3741 11.0054 40.953 10.4622 41.5295 9.9495C47.0994 4.99784 52.3053 3.04283 54.6772 4.44005Z" fill="white"/>
<path d="M38 28C41.8659 28 45 31.1339 45 35C45 38.8659 41.8659 42 38 42C34.1341 42 31 38.8659 31 35C31 31.1339 34.1341 28 38 28Z" fill="#53C1DE"/>
</svg>
